<svg xmlns="http://www.w3.org/2000/svg" xmlns:xlink="http://www.w3.org/1999/xlink" version="1.1" x="0px" y="0px" viewBox="0 0 100 125" style="enable-background:new 0 0 100 100;" xml:space="preserve"><style type="text/css">
	.st0{fill:none;stroke:#000000;stroke-width:2;stroke-miterlimit:10;}
</style><g><rect x="61.9" y="58.9" width="12.1" height="12.1"/><g><polygon points="29.5,57.7 37.1,57.7 37.1,25 34.1,25 34.1,54 29.5,54   "/><polygon points="41.2,25 38.1,25 38.1,58.7 29.5,58.7 29.5,62.4 41.2,62.4   "/><path d="M77.9,25H75H42.2v38.4H29.5v6.3h-10v-20h10V53h3.6V25h-7.6h-3.4c-3.9,0-7.1,3.2-7.1,7.1v3.1v39.9v2.8    c0,3.9,3.2,7.1,7.1,7.1h2.8h50.3h2.7c3.9,0,7.1-3.2,7.1-7.1v-2.8V35v-2.9C85,28.2,81.8,25,77.9,25z M20.9,29.3    c0.8,0,1.4,0.6,1.4,1.4S21.6,32,20.9,32s-1.4-0.6-1.4-1.4S20.1,29.3,20.9,29.3z M20.9,80.9c-0.8,0-1.4-0.6-1.4-1.4    s0.6-1.4,1.4-1.4s1.4,0.6,1.4,1.4S21.6,80.9,20.9,80.9z M78,75H58V55h12.5V40.5H65v4.3h-1.4v2.4h-1.4v-2.4h-3.3v2.4h-1.4v-2.4    h-3.3v2.4h-1.4v-2.4h-3.3v2.4h-1.4v-2.4h-1.4V34.1h1.4V32h1.4v2.1h3.3V32h1.4v2.1h3.3V32h1.4v2.1h3.3V32h1.4v2.1H65v4.3h7.5V55H78    V75z M79.5,80.9c-0.8,0-1.4-0.6-1.4-1.4s0.6-1.4,1.4-1.4s1.4,0.6,1.4,1.4S80.3,80.9,79.5,80.9z M79.5,32c-0.8,0-1.4-0.6-1.4-1.4    s0.6-1.4,1.4-1.4s1.4,0.6,1.4,1.4S80.3,32,79.5,32z"/></g></g><text x="0" y="115" fill="#000000" font-size="5px" font-weight="bold" font-family="'Helvetica Neue', Helvetica, Arial-Unicode, Arial, Sans-serif">Created by IlMostro</text><text x="0" y="120" fill="#000000" font-size="5px" font-weight="bold" font-family="'Helvetica Neue', Helvetica, Arial-Unicode, Arial, Sans-serif">from the Noun Project</text></svg>