<?xml version="1.0" encoding="UTF-8" standalone="no"?>
<!-- Created with Inkscape (http://www.inkscape.org/) -->

<svg
   width="181.5181mm"
   height="44.018341mm"
   viewBox="0 0 181.51811 44.018342"
   version="1.1"
   id="svg5"
   inkscape:version="1.1.2 (b8e25be833, 2022-02-05)"
   sodipodi:docname="RBBlogo.svg"
   xmlns:inkscape="http://www.inkscape.org/namespaces/inkscape"
   xmlns:sodipodi="http://sodipodi.sourceforge.net/DTD/sodipodi-0.dtd"
   xmlns:xlink="http://www.w3.org/1999/xlink"
   xmlns="http://www.w3.org/2000/svg"
   xmlns:svg="http://www.w3.org/2000/svg">
  <sodipodi:namedview
     id="namedview7"
     pagecolor="#ffffff"
     bordercolor="#666666"
     borderopacity="1.0"
     inkscape:pageshadow="2"
     inkscape:pageopacity="0.0"
     inkscape:pagecheckerboard="0"
     inkscape:document-units="mm"
     showgrid="false"
     inkscape:zoom="1.4218013"
     inkscape:cx="427.62656"
     inkscape:cy="148.05163"
     inkscape:window-width="1920"
     inkscape:window-height="991"
     inkscape:window-x="-9"
     inkscape:window-y="-9"
     inkscape:window-maximized="1"
     inkscape:current-layer="g938" />
  <defs
     id="defs2">
    <linearGradient
       inkscape:collect="always"
       id="linearGradient1867">
      <stop
         style="stop-color:#ffd42a;stop-opacity:1"
         offset="0"
         id="stop1863" />
      <stop
         style="stop-color:#806600;stop-opacity:1"
         offset="1"
         id="stop1865" />
    </linearGradient>
    <linearGradient
       inkscape:collect="always"
       id="linearGradient1270">
      <stop
         style="stop-color:#800000;stop-opacity:1;"
         offset="0"
         id="stop1266" />
      <stop
         style="stop-color:#800000;stop-opacity:0;"
         offset="1"
         id="stop1268" />
    </linearGradient>
    <inkscape:path-effect
       effect="bspline"
       id="path-effect20916"
       is_visible="true"
       lpeversion="1"
       weight="33.333333"
       steps="2"
       helper_size="0"
       apply_no_weight="true"
       apply_with_weight="true"
       only_selected="false" />
    <linearGradient
       inkscape:collect="always"
       xlink:href="#linearGradient1270"
       id="linearGradient1272"
       x1="120.33246"
       y1="91.982498"
       x2="125.60079"
       y2="91.982498"
       gradientUnits="userSpaceOnUse" />
    <radialGradient
       inkscape:collect="always"
       xlink:href="#linearGradient1867"
       id="radialGradient2543"
       cx="103.55092"
       cy="93.259171"
       fx="103.55092"
       fy="93.259171"
       r="22.05092"
       gradientTransform="matrix(1,0,0,0.99810665,0,0.17657179)"
       gradientUnits="userSpaceOnUse" />
    <radialGradient
       inkscape:collect="always"
       xlink:href="#linearGradient1867"
       id="radialGradient4767"
       gradientUnits="userSpaceOnUse"
       gradientTransform="matrix(1,0,0,0.99810665,0,0.17657179)"
       cx="103.55092"
       cy="93.259171"
       fx="103.55092"
       fy="93.259171"
       r="22.05092" />
    <radialGradient
       inkscape:collect="always"
       xlink:href="#linearGradient1867"
       id="radialGradient4769"
       gradientUnits="userSpaceOnUse"
       gradientTransform="matrix(1,0,0,0.99810665,0,0.17657179)"
       cx="103.55092"
       cy="93.259171"
       fx="103.55092"
       fy="93.259171"
       r="22.05092" />
    <radialGradient
       inkscape:collect="always"
       xlink:href="#linearGradient1867"
       id="radialGradient4771"
       gradientUnits="userSpaceOnUse"
       gradientTransform="matrix(1,0,0,0.99810665,0,0.17657179)"
       cx="103.55092"
       cy="93.259171"
       fx="103.55092"
       fy="93.259171"
       r="22.05092" />
    <radialGradient
       inkscape:collect="always"
       xlink:href="#linearGradient1867"
       id="radialGradient4773"
       gradientUnits="userSpaceOnUse"
       gradientTransform="matrix(1,0,0,0.99810665,0,0.17657179)"
       cx="103.55092"
       cy="93.259171"
       fx="103.55092"
       fy="93.259171"
       r="22.05092" />
    <radialGradient
       inkscape:collect="always"
       xlink:href="#linearGradient1867"
       id="radialGradient4775"
       gradientUnits="userSpaceOnUse"
       gradientTransform="matrix(1,0,0,0.99810665,0,0.17657179)"
       cx="103.55092"
       cy="93.259171"
       fx="103.55092"
       fy="93.259171"
       r="22.05092" />
    <radialGradient
       inkscape:collect="always"
       xlink:href="#linearGradient1867"
       id="radialGradient4777"
       gradientUnits="userSpaceOnUse"
       gradientTransform="matrix(1,0,0,0.99810665,0,0.17657179)"
       cx="103.55092"
       cy="93.259171"
       fx="103.55092"
       fy="93.259171"
       r="22.05092" />
    <radialGradient
       inkscape:collect="always"
       xlink:href="#linearGradient1867"
       id="radialGradient4779"
       gradientUnits="userSpaceOnUse"
       gradientTransform="matrix(1,0,0,0.99810665,0,0.17657179)"
       cx="103.55092"
       cy="93.259171"
       fx="103.55092"
       fy="93.259171"
       r="22.05092" />
    <radialGradient
       inkscape:collect="always"
       xlink:href="#linearGradient1867"
       id="radialGradient4781"
       gradientUnits="userSpaceOnUse"
       gradientTransform="matrix(1,0,0,0.99810665,0,0.17657179)"
       cx="103.55092"
       cy="93.259171"
       fx="103.55092"
       fy="93.259171"
       r="22.05092" />
    <radialGradient
       inkscape:collect="always"
       xlink:href="#linearGradient1867"
       id="radialGradient4783"
       gradientUnits="userSpaceOnUse"
       gradientTransform="matrix(1,0,0,0.99810665,0,0.17657179)"
       cx="103.55092"
       cy="93.259171"
       fx="103.55092"
       fy="93.259171"
       r="22.05092" />
    <radialGradient
       inkscape:collect="always"
       xlink:href="#linearGradient1867"
       id="radialGradient4785"
       gradientUnits="userSpaceOnUse"
       gradientTransform="matrix(1,0,0,0.99810665,0,0.17657179)"
       cx="103.55092"
       cy="93.259171"
       fx="103.55092"
       fy="93.259171"
       r="22.05092" />
    <radialGradient
       inkscape:collect="always"
       xlink:href="#linearGradient1867"
       id="radialGradient4787"
       gradientUnits="userSpaceOnUse"
       gradientTransform="matrix(1,0,0,0.99810665,0,0.17657179)"
       cx="103.55092"
       cy="93.259171"
       fx="103.55092"
       fy="93.259171"
       r="22.05092" />
    <radialGradient
       inkscape:collect="always"
       xlink:href="#linearGradient1867"
       id="radialGradient4789"
       gradientUnits="userSpaceOnUse"
       gradientTransform="matrix(1,0,0,0.99810665,0,0.17657179)"
       cx="103.55092"
       cy="93.259171"
       fx="103.55092"
       fy="93.259171"
       r="22.05092" />
    <radialGradient
       inkscape:collect="always"
       xlink:href="#linearGradient1867"
       id="radialGradient4791"
       gradientUnits="userSpaceOnUse"
       gradientTransform="matrix(1,0,0,0.99810665,0,0.17657179)"
       cx="103.55092"
       cy="93.259171"
       fx="103.55092"
       fy="93.259171"
       r="22.05092" />
    <radialGradient
       inkscape:collect="always"
       xlink:href="#linearGradient1867"
       id="radialGradient4793"
       gradientUnits="userSpaceOnUse"
       gradientTransform="matrix(1,0,0,0.99810665,0,0.17657179)"
       cx="103.55092"
       cy="93.259171"
       fx="103.55092"
       fy="93.259171"
       r="22.05092" />
    <radialGradient
       inkscape:collect="always"
       xlink:href="#linearGradient1867"
       id="radialGradient4795"
       gradientUnits="userSpaceOnUse"
       gradientTransform="matrix(1,0,0,0.99810665,0,0.17657179)"
       cx="103.55092"
       cy="93.259171"
       fx="103.55092"
       fy="93.259171"
       r="22.05092" />
    <radialGradient
       inkscape:collect="always"
       xlink:href="#linearGradient1867"
       id="radialGradient4797"
       gradientUnits="userSpaceOnUse"
       gradientTransform="matrix(1,0,0,0.99810665,0,0.17657179)"
       cx="103.55092"
       cy="93.259171"
       fx="103.55092"
       fy="93.259171"
       r="22.05092" />
    <radialGradient
       inkscape:collect="always"
       xlink:href="#linearGradient1867"
       id="radialGradient4799"
       gradientUnits="userSpaceOnUse"
       gradientTransform="matrix(1,0,0,0.99810665,0,0.17657179)"
       cx="103.55092"
       cy="93.259171"
       fx="103.55092"
       fy="93.259171"
       r="22.05092" />
    <radialGradient
       inkscape:collect="always"
       xlink:href="#linearGradient1867"
       id="radialGradient4801"
       gradientUnits="userSpaceOnUse"
       gradientTransform="matrix(1,0,0,0.99810665,0,0.17657179)"
       cx="103.55092"
       cy="93.259171"
       fx="103.55092"
       fy="93.259171"
       r="22.05092" />
    <radialGradient
       inkscape:collect="always"
       xlink:href="#linearGradient1867"
       id="radialGradient4803"
       gradientUnits="userSpaceOnUse"
       gradientTransform="matrix(1,0,0,0.99810665,0,0.17657179)"
       cx="103.55092"
       cy="93.259171"
       fx="103.55092"
       fy="93.259171"
       r="22.05092" />
    <radialGradient
       inkscape:collect="always"
       xlink:href="#linearGradient1867"
       id="radialGradient4805"
       gradientUnits="userSpaceOnUse"
       gradientTransform="matrix(1,0,0,0.99810665,0,0.17657179)"
       cx="103.55092"
       cy="93.259171"
       fx="103.55092"
       fy="93.259171"
       r="22.05092" />
    <radialGradient
       inkscape:collect="always"
       xlink:href="#linearGradient1867"
       id="radialGradient4807"
       gradientUnits="userSpaceOnUse"
       gradientTransform="matrix(1,0,0,0.99810665,0,0.17657179)"
       cx="103.55092"
       cy="93.259171"
       fx="103.55092"
       fy="93.259171"
       r="22.05092" />
    <radialGradient
       inkscape:collect="always"
       xlink:href="#linearGradient1867"
       id="radialGradient4809"
       gradientUnits="userSpaceOnUse"
       gradientTransform="matrix(1,0,0,0.99810665,0,0.17657179)"
       cx="103.55092"
       cy="93.259171"
       fx="103.55092"
       fy="93.259171"
       r="22.05092" />
    <radialGradient
       inkscape:collect="always"
       xlink:href="#linearGradient1867"
       id="radialGradient4811"
       gradientUnits="userSpaceOnUse"
       gradientTransform="matrix(1,0,0,0.99810665,0,0.17657179)"
       cx="103.55092"
       cy="93.259171"
       fx="103.55092"
       fy="93.259171"
       r="22.05092" />
    <radialGradient
       inkscape:collect="always"
       xlink:href="#linearGradient1867"
       id="radialGradient4813"
       gradientUnits="userSpaceOnUse"
       gradientTransform="matrix(1,0,0,0.99810665,0,0.17657179)"
       cx="103.55092"
       cy="93.259171"
       fx="103.55092"
       fy="93.259171"
       r="22.05092" />
    <radialGradient
       inkscape:collect="always"
       xlink:href="#linearGradient1867"
       id="radialGradient4815"
       gradientUnits="userSpaceOnUse"
       gradientTransform="matrix(1,0,0,0.99810665,0,0.17657179)"
       cx="103.55092"
       cy="93.259171"
       fx="103.55092"
       fy="93.259171"
       r="22.05092" />
    <radialGradient
       inkscape:collect="always"
       xlink:href="#linearGradient1867"
       id="radialGradient4817"
       gradientUnits="userSpaceOnUse"
       gradientTransform="matrix(1,0,0,0.99810665,0,0.17657179)"
       cx="103.55092"
       cy="93.259171"
       fx="103.55092"
       fy="93.259171"
       r="22.05092" />
    <radialGradient
       inkscape:collect="always"
       xlink:href="#linearGradient1867"
       id="radialGradient4819"
       gradientUnits="userSpaceOnUse"
       gradientTransform="matrix(1,0,0,0.99810665,0,0.17657179)"
       cx="103.55092"
       cy="93.259171"
       fx="103.55092"
       fy="93.259171"
       r="22.05092" />
    <radialGradient
       inkscape:collect="always"
       xlink:href="#linearGradient1867"
       id="radialGradient4821"
       gradientUnits="userSpaceOnUse"
       gradientTransform="matrix(1,0,0,0.99810665,0,0.17657179)"
       cx="103.55092"
       cy="93.259171"
       fx="103.55092"
       fy="93.259171"
       r="22.05092" />
    <radialGradient
       inkscape:collect="always"
       xlink:href="#linearGradient1867"
       id="radialGradient4823"
       gradientUnits="userSpaceOnUse"
       gradientTransform="matrix(1,0,0,0.99810665,0,0.17657179)"
       cx="103.55092"
       cy="93.259171"
       fx="103.55092"
       fy="93.259171"
       r="22.05092" />
    <radialGradient
       inkscape:collect="always"
       xlink:href="#linearGradient1867"
       id="radialGradient4825"
       gradientUnits="userSpaceOnUse"
       gradientTransform="matrix(1,0,0,0.99810665,0,0.17657179)"
       cx="103.55092"
       cy="93.259171"
       fx="103.55092"
       fy="93.259171"
       r="22.05092" />
    <radialGradient
       inkscape:collect="always"
       xlink:href="#linearGradient1867"
       id="radialGradient4827"
       gradientUnits="userSpaceOnUse"
       gradientTransform="matrix(1,0,0,0.99810665,0,0.17657179)"
       cx="103.55092"
       cy="93.259171"
       fx="103.55092"
       fy="93.259171"
       r="22.05092" />
    <radialGradient
       inkscape:collect="always"
       xlink:href="#linearGradient1867"
       id="radialGradient4829"
       gradientUnits="userSpaceOnUse"
       gradientTransform="matrix(1,0,0,0.99810665,0,0.17657179)"
       cx="103.55092"
       cy="93.259171"
       fx="103.55092"
       fy="93.259171"
       r="22.05092" />
    <radialGradient
       inkscape:collect="always"
       xlink:href="#linearGradient1867"
       id="radialGradient4831"
       gradientUnits="userSpaceOnUse"
       gradientTransform="matrix(1,0,0,0.99810665,0,0.17657179)"
       cx="103.55092"
       cy="93.259171"
       fx="103.55092"
       fy="93.259171"
       r="22.05092" />
    <radialGradient
       inkscape:collect="always"
       xlink:href="#linearGradient1867"
       id="radialGradient4833"
       gradientUnits="userSpaceOnUse"
       gradientTransform="matrix(1,0,0,0.99810665,0,0.17657179)"
       cx="103.55092"
       cy="93.259171"
       fx="103.55092"
       fy="93.259171"
       r="22.05092" />
  </defs>
  <g
     inkscape:label="Layer 1"
     inkscape:groupmode="layer"
     id="layer1"
     transform="translate(-81.236829,-72.368478)">
    <g
       id="g938">
      <g
         aria-label="RBB"
         id="text2568"
         style="font-size:50.8px;line-height:1.25;fill:#008c0e;stroke-width:0.264583"
         transform="matrix(1.5112794,0,0,1.5112794,40.586587,-107.8114)">
        <path
           id="path1057"
           style="font-weight:bold;font-family:'Eras Bold ITC';-inkscape-font-specification:'Eras Bold ITC Bold';stroke-width:0.222596"
           d="m 120.7752,148.12007 q 0.43824,-4.59105 0.58433,-7.22047 0.20867,-3.58938 0.39649,-9.8499 0.20869,-6.26053 0.20869,-8.82734 0,-0.91821 -0.0209,-2.58769 2.7755,0.0626 4.40324,0.0626 2.27466,0 5.30058,-0.0834 3.02592,-0.10434 5.19623,-0.10434 2.60856,0 3.71458,0.14607 1.46079,0.18782 2.54595,0.66779 1.10603,0.47998 1.83642,1.18951 0.81386,0.83473 1.27298,2.00336 0.52171,1.33558 0.52171,2.85898 0,1.1895 -0.31304,2.27465 -0.29215,1.08516 -0.8556,1.94077 -0.54258,0.83473 -1.23123,1.39818 -0.68866,0.56345 -1.35645,0.87648 -0.64692,0.31302 -1.75295,0.62605 1.10603,0.18781 1.77382,0.43824 0.66779,0.22955 1.41905,0.77213 0.77213,0.52171 1.37731,1.35644 0.60519,0.83474 0.89735,1.87817 0.31303,1.02255 0.31303,2.17031 0,1.586 -0.52172,2.98418 -0.52171,1.39819 -1.46079,2.39987 -0.793,0.8556 -2.06597,1.46079 -1.27297,0.60519 -2.60855,0.83474 -1.08516,0.16695 -3.965,0.25042 -2.85898,0.0834 -6.07271,0.0834 l -5.4884,-0.0209 z m 9.30732,-17.38339 h 2.96332 q 1.46079,0 2.06597,-0.0626 0.62606,-0.0834 1.21037,-0.27129 0.58432,-0.18781 1.00168,-0.62605 0.43824,-0.43824 0.60519,-0.98081 0.18782,-0.54258 0.18782,-1.08516 0,-0.77213 -0.37563,-1.37731 -0.35476,-0.60519 -1.16864,-0.89735 -0.81387,-0.29216 -2.48334,-0.29216 h -3.75632 z m -0.47997,11.66545 h 4.00674 q 1.58599,0 2.33726,-0.18782 0.91821,-0.22956 1.39819,-0.60519 0.47997,-0.37562 0.75125,-1.02255 0.29217,-0.64692 0.29217,-1.43992 0,-0.68866 -0.22956,-1.21036 -0.22955,-0.52172 -0.68866,-0.87648 -0.4591,-0.35476 -1.12689,-0.50084 -0.66779,-0.16695 -2.08684,-0.16695 h -4.40324 z m -39.149165,5.71794 q 0.438237,-4.59105 0.584316,-7.22047 0.208685,-3.58938 0.3965,-9.8499 0.208685,-6.26053 0.208685,-8.82734 0,-0.91821 -0.02087,-2.58769 2.7755,0.0626 4.403237,0.0626 2.274658,0 5.300577,-0.0834 3.02592,-0.10434 5.19624,-0.10434 2.60855,0 3.71457,0.14607 1.46079,0.18782 2.54595,0.66779 1.10602,0.47998 1.83642,1.18951 0.81387,0.83473 1.27297,2.00336 0.52171,1.33558 0.52171,2.85898 0,1.1895 -0.31302,2.27465 -0.29216,1.08516 -0.85561,1.94077 -0.54257,0.83473 -1.23124,1.39818 -0.68865,0.56345 -1.35644,0.87648 -0.64692,0.31302 -1.75295,0.62605 1.10603,0.18781 1.77381,0.43824 0.66779,0.22955 1.41906,0.77213 0.77213,0.52171 1.37732,1.35644 0.60518,0.83474 0.89734,1.87817 0.31302,1.02255 0.31302,2.17031 0,1.586 -0.5217,2.98418 -0.52172,1.39819 -1.46079,2.39987 -0.79301,0.8556 -2.06598,1.46079 -1.27297,0.60519 -2.60855,0.83474 -1.08516,0.16695 -3.96499,0.25042 -2.85898,0.0834 -6.072711,0.0834 l -5.488401,-0.0209 z m 9.307314,-17.38339 h 2.963321 q 1.46079,0 2.06597,-0.0626 0.62606,-0.0834 1.21037,-0.27129 0.58432,-0.18781 1.00169,-0.62605 0.43824,-0.43824 0.60518,-0.98081 0.18782,-0.54258 0.18782,-1.08516 0,-0.77213 -0.37563,-1.37731 -0.35477,-0.60519 -1.16863,-0.89735 -0.81387,-0.29216 -2.48335,-0.29216 h -3.75631 z m -0.479971,11.66545 h 4.006742 q 1.586,0 2.33726,-0.18782 0.91821,-0.22956 1.39818,-0.60519 0.47998,-0.37562 0.75127,-1.02255 0.29216,-0.64692 0.29216,-1.43992 0,-0.68866 -0.22956,-1.21036 -0.22955,-0.52172 -0.68865,-0.87648 -0.45911,-0.35476 -1.1269,-0.50084 -0.66779,-0.16695 -2.08684,-0.16695 h -4.403241 z m -38.898741,5.71794 q 0.3965,-3.67284 0.626052,-6.61529 0.229553,-2.94244 0.3965,-6.82398 0.166948,-3.88152 0.250422,-8.18041 0.08347,-4.31977 0.08347,-6.86572 2.608553,0.0626 4.215421,0.0626 1.669474,0 4.069343,-0.0834 2.399869,-0.10434 4.674527,-0.10434 2.671158,0 4.758001,0.20868 1.565131,0.14608 2.838105,0.60518 1.293842,0.45911 2.170316,1.1269 0.876474,0.64692 1.46079,1.46079 0.584315,0.81386 0.897342,1.91989 0.333894,1.08516 0.333894,2.33727 0,1.39818 -0.354762,2.62942 -0.354764,1.21037 -1.126895,2.29552 -0.751264,1.06429 -1.919896,1.85729 -1.147762,0.77213 -3.234605,1.58601 l 1.085158,2.65028 q 0.459106,1.10603 0.980816,2.25379 l 2.796369,6.11445 q 0.187815,0.3965 0.667789,1.56513 -3.443289,-0.0417 -4.63279,-0.0417 -1.502526,0 -4.924948,0.0417 -0.333895,-1.08515 -1.210369,-4.0276 -0.354762,-1.23124 -0.605184,-1.89903 -0.500842,-1.48166 -1.481657,-4.15282 l -2.149448,-5.90576 q 1.126895,0.20868 2.212053,0.20868 1.523395,0 2.754631,-0.4591 1.252106,-0.45911 1.878158,-1.41905 0.646922,-0.95995 0.646922,-2.02424 0,-0.89734 -0.479974,-1.56513 -0.479974,-0.68866 -1.523395,-1.02256 -1.022553,-0.33389 -3.172,-0.33389 -0.730395,0 -1.523395,0.0417 -0.772131,0.0209 -1.815553,0.0417 -0.27129,4.27803 -0.479974,10.43421 -0.208684,6.15618 -0.271289,12.08281 -3.485027,-0.0417 -4.528448,-0.0417 -1.210368,0 -4.3615,0.0417 z" />
      </g>
      <g
         id="g24023"
         transform="translate(-0.26317133,1.1184781)"
         style="stroke:url(#radialGradient2543);stroke-opacity:1">
        <rect
           style="fill:#008c0e;fill-opacity:0;stroke:url(#radialGradient4767);stroke-width:0.896558;stroke-linejoin:round;stroke-miterlimit:4.3;stroke-dasharray:none;stroke-opacity:1"
           id="rect19463"
           width="24.103441"
           height="24.103441"
           x="91.44828"
           y="81.19828" />
        <rect
           style="fill:none;fill-opacity:0;stroke:url(#radialGradient4769);stroke-width:0.867922;stroke-linecap:butt;stroke-linejoin:round;stroke-miterlimit:10;stroke-dasharray:none;stroke-opacity:1;paint-order:normal"
           id="rect19487"
           width="34.132076"
           height="34.132076"
           x="86.43396"
           y="76.18396"
           ry="3.2896416" />
        <path
           style="fill:none;stroke:url(#radialGradient4771);stroke-width:0.965;stroke-linecap:round;stroke-linejoin:miter;stroke-miterlimit:4;stroke-dasharray:none;stroke-opacity:1"
           d="m 86.285834,81.4825 -4.303334,2e-6"
           id="path20918" />
        <path
           style="fill:none;stroke:url(#radialGradient4773);stroke-width:0.965;stroke-linecap:round;stroke-linejoin:miter;stroke-miterlimit:4;stroke-dasharray:none;stroke-opacity:1"
           d="m 86.285887,84.9825 -2.299701,10e-7 -2.003633,10e-7"
           id="path20918-5"
           sodipodi:nodetypes="ccc" />
        <path
           style="fill:none;stroke:url(#radialGradient4775);stroke-width:0.965;stroke-linecap:round;stroke-linejoin:miter;stroke-miterlimit:4;stroke-dasharray:none;stroke-opacity:1"
           d="m 86.286481,88.4825 -4.303334,2e-6"
           id="path20918-1" />
        <path
           style="fill:none;stroke:url(#radialGradient4777);stroke-width:0.965;stroke-linecap:round;stroke-linejoin:miter;stroke-miterlimit:4;stroke-dasharray:none;stroke-opacity:1"
           d="m 86.286534,91.9825 -2.299701,10e-7 -2.003633,10e-7"
           id="path20918-5-2"
           sodipodi:nodetypes="ccc" />
        <path
           style="fill:none;stroke:url(#radialGradient4779);stroke-width:0.965;stroke-linecap:round;stroke-linejoin:miter;stroke-miterlimit:4;stroke-dasharray:none;stroke-opacity:1"
           d="m 86.286887,95.4825 -4.303334,2e-6"
           id="path20918-2" />
        <path
           style="fill:none;stroke:url(#radialGradient4781);stroke-width:0.965;stroke-linecap:round;stroke-linejoin:miter;stroke-miterlimit:4;stroke-dasharray:none;stroke-opacity:1"
           d="m 86.28694,98.9825 -2.299701,10e-7 -2.003633,10e-7"
           id="path20918-5-5"
           sodipodi:nodetypes="ccc" />
        <path
           style="fill:none;stroke:url(#radialGradient4783);stroke-width:0.965;stroke-linecap:round;stroke-linejoin:miter;stroke-miterlimit:4;stroke-dasharray:none;stroke-opacity:1"
           d="M 86.287534,102.4825 H 81.9842"
           id="path20918-1-8" />
        <path
           style="fill:none;stroke:url(#radialGradient4785);stroke-width:0.965;stroke-linecap:round;stroke-linejoin:miter;stroke-miterlimit:4;stroke-dasharray:none;stroke-opacity:1"
           d="m 86.287587,105.9825 h -2.299701 l -2.003633,1e-5"
           id="path20918-5-2-1"
           sodipodi:nodetypes="ccc" />
        <path
           style="fill:none;stroke:url(#radialGradient4787);stroke-width:0.965;stroke-linecap:round;stroke-linejoin:miter;stroke-miterlimit:4;stroke-dasharray:none;stroke-opacity:1"
           d="m 125.11759,81.4825 -4.30333,2e-6"
           id="path20918-4" />
        <path
           style="fill:none;stroke:url(#radialGradient4789);stroke-width:0.965;stroke-linecap:round;stroke-linejoin:miter;stroke-miterlimit:4;stroke-dasharray:none;stroke-opacity:1"
           d="m 125.11764,84.9825 -2.2997,10e-7 -2.00363,10e-7"
           id="path20918-5-6"
           sodipodi:nodetypes="ccc" />
        <path
           style="fill:none;stroke:url(#radialGradient4791);stroke-width:0.965;stroke-linecap:round;stroke-linejoin:miter;stroke-miterlimit:4;stroke-dasharray:none;stroke-opacity:1"
           d="m 125.11824,88.4825 -4.30334,2e-6"
           id="path20918-1-0" />
        <path
           style="fill:url(#linearGradient1272);stroke:url(#radialGradient4793);stroke-width:0.965;stroke-linecap:round;stroke-linejoin:miter;stroke-miterlimit:4;stroke-dasharray:none;stroke-opacity:1"
           d="m 125.11829,91.9825 -2.2997,10e-7 -2.00363,10e-7"
           id="path20918-5-2-8"
           sodipodi:nodetypes="ccc" />
        <path
           style="fill:none;stroke:url(#radialGradient4795);stroke-width:0.965;stroke-linecap:round;stroke-linejoin:miter;stroke-miterlimit:4;stroke-dasharray:none;stroke-opacity:1"
           d="m 125.11864,95.4825 -4.30333,2e-6"
           id="path20918-2-0" />
        <path
           style="fill:none;stroke:url(#radialGradient4797);stroke-width:0.965;stroke-linecap:round;stroke-linejoin:miter;stroke-miterlimit:4;stroke-dasharray:none;stroke-opacity:1"
           d="m 125.1187,98.9825 -2.2997,10e-7 -2.00364,10e-7"
           id="path20918-5-5-8"
           sodipodi:nodetypes="ccc" />
        <path
           style="fill:none;stroke:url(#radialGradient4799);stroke-width:0.965;stroke-linecap:round;stroke-linejoin:miter;stroke-miterlimit:4;stroke-dasharray:none;stroke-opacity:1"
           d="m 125.11929,102.4825 h -4.30333"
           id="path20918-1-8-4" />
        <path
           style="fill:none;stroke:url(#radialGradient4801);stroke-width:0.965;stroke-linecap:round;stroke-linejoin:miter;stroke-miterlimit:4;stroke-dasharray:none;stroke-opacity:1"
           d="m 125.11934,105.9825 h -2.2997 l -2.00363,1e-5"
           id="path20918-5-2-1-0"
           sodipodi:nodetypes="ccc" />
        <path
           style="fill:none;stroke:url(#radialGradient4803);stroke-width:0.965;stroke-linecap:round;stroke-linejoin:miter;stroke-miterlimit:4;stroke-dasharray:none;stroke-opacity:1"
           d="m 116.23251,76.03583 -1e-5,-4.30333"
           id="path20918-57" />
        <path
           style="fill:none;stroke:url(#radialGradient4805);stroke-width:0.965;stroke-linecap:round;stroke-linejoin:miter;stroke-miterlimit:4;stroke-dasharray:none;stroke-opacity:1"
           d="M 112.7325,76.03584 V 73.73614 71.7325"
           id="path20918-5-62"
           sodipodi:nodetypes="ccc" />
        <path
           style="fill:none;stroke:url(#radialGradient4807);stroke-width:0.965;stroke-linecap:round;stroke-linejoin:miter;stroke-miterlimit:4;stroke-dasharray:none;stroke-opacity:1"
           d="M 105.7325,76.03584 V 71.7325"
           id="path20918-1-4" />
        <path
           style="fill:none;stroke:url(#radialGradient4809);stroke-width:0.965;stroke-linecap:round;stroke-linejoin:miter;stroke-miterlimit:4;stroke-dasharray:none;stroke-opacity:1"
           d="M 109.2325,76.03584 V 73.73614 71.7325"
           id="path20918-5-2-89"
           sodipodi:nodetypes="ccc" />
        <path
           style="fill:none;stroke:url(#radialGradient4811);stroke-width:0.965;stroke-linecap:round;stroke-linejoin:miter;stroke-miterlimit:4;stroke-dasharray:none;stroke-opacity:1"
           d="M 102.2325,76.03584 V 71.7325"
           id="path20918-2-3" />
        <path
           style="fill:none;stroke:url(#radialGradient4813);stroke-width:0.965;stroke-linecap:round;stroke-linejoin:miter;stroke-miterlimit:4;stroke-dasharray:none;stroke-opacity:1"
           d="M 98.7325,76.03584 V 73.73614 71.7325"
           id="path20918-5-5-6"
           sodipodi:nodetypes="ccc" />
        <path
           style="fill:none;stroke:url(#radialGradient4815);stroke-width:0.965;stroke-linecap:round;stroke-linejoin:miter;stroke-miterlimit:4;stroke-dasharray:none;stroke-opacity:1"
           d="M 95.2325,76.03584 V 71.7325"
           id="path20918-1-8-3" />
        <path
           style="fill:none;stroke:url(#radialGradient4817);stroke-width:0.965;stroke-linecap:round;stroke-linejoin:miter;stroke-miterlimit:4;stroke-dasharray:none;stroke-opacity:1"
           d="m 91.73251,76.03583 v -2.2997 l -1e-5,-2.00363"
           id="path20918-5-2-1-8"
           sodipodi:nodetypes="ccc" />
        <path
           style="fill:none;stroke:url(#radialGradient4819);stroke-width:0.965;stroke-linecap:round;stroke-linejoin:miter;stroke-miterlimit:4;stroke-dasharray:none;stroke-opacity:1"
           d="m 116.23251,114.78583 -1e-5,-4.30333"
           id="path20918-57-9" />
        <path
           style="fill:none;stroke:url(#radialGradient4821);stroke-width:0.965;stroke-linecap:round;stroke-linejoin:miter;stroke-miterlimit:4;stroke-dasharray:none;stroke-opacity:1"
           d="m 112.7325,114.78584 v -2.2997 -2.00364"
           id="path20918-5-62-5"
           sodipodi:nodetypes="ccc" />
        <path
           style="fill:none;stroke:url(#radialGradient4823);stroke-width:0.965;stroke-linecap:round;stroke-linejoin:miter;stroke-miterlimit:4;stroke-dasharray:none;stroke-opacity:1"
           d="M 105.7325,114.78584 V 110.4825"
           id="path20918-1-4-5" />
        <path
           style="fill:none;stroke:url(#radialGradient4825);stroke-width:0.965;stroke-linecap:round;stroke-linejoin:miter;stroke-miterlimit:4;stroke-dasharray:none;stroke-opacity:1"
           d="m 109.2325,114.78584 v -2.2997 -2.00364"
           id="path20918-5-2-89-8"
           sodipodi:nodetypes="ccc" />
        <path
           style="fill:none;stroke:url(#radialGradient4827);stroke-width:0.965;stroke-linecap:round;stroke-linejoin:miter;stroke-miterlimit:4;stroke-dasharray:none;stroke-opacity:1"
           d="M 102.2325,114.78584 V 110.4825"
           id="path20918-2-3-9" />
        <path
           style="fill:none;stroke:url(#radialGradient4829);stroke-width:0.965;stroke-linecap:round;stroke-linejoin:miter;stroke-miterlimit:4;stroke-dasharray:none;stroke-opacity:1"
           d="m 98.7325,114.78584 v -2.2997 -2.00364"
           id="path20918-5-5-6-0"
           sodipodi:nodetypes="ccc" />
        <path
           style="fill:none;stroke:url(#radialGradient4831);stroke-width:0.965;stroke-linecap:round;stroke-linejoin:miter;stroke-miterlimit:4;stroke-dasharray:none;stroke-opacity:1"
           d="M 95.2325,114.78584 V 110.4825"
           id="path20918-1-8-3-7" />
        <path
           style="fill:none;stroke:url(#radialGradient4833);stroke-width:0.965;stroke-linecap:round;stroke-linejoin:miter;stroke-miterlimit:4;stroke-dasharray:none;stroke-opacity:1"
           d="m 91.73251,114.78583 v -2.2997 l -1e-5,-2.00363"
           id="path20918-5-2-1-8-6"
           sodipodi:nodetypes="ccc" />
      </g>
    </g>
  </g>
</svg>
