<?xml version="1.0" encoding="UTF-8" standalone="no"?>
<!-- Created with Inkscape (http://www.inkscape.org/) -->

<svg
   width="306.91547mm"
   height="46.220776mm"
   viewBox="0 0 306.9155 46.220776"
   version="1.1"
   id="svg5"
   inkscape:version="1.1.2 (b8e25be833, 2022-02-05)"
   sodipodi:docname="skill_level.svg"
   xmlns:inkscape="http://www.inkscape.org/namespaces/inkscape"
   xmlns:sodipodi="http://sodipodi.sourceforge.net/DTD/sodipodi-0.dtd"
   xmlns:xlink="http://www.w3.org/1999/xlink"
   xmlns="http://www.w3.org/2000/svg"
   xmlns:svg="http://www.w3.org/2000/svg">
  <sodipodi:namedview
     id="namedview7"
     pagecolor="#ffffff"
     bordercolor="#666666"
     borderopacity="1.0"
     inkscape:pageshadow="2"
     inkscape:pageopacity="0"
     inkscape:pagecheckerboard="true"
     inkscape:document-units="mm"
     showgrid="false"
     inkscape:zoom="2"
     inkscape:cx="221"
     inkscape:cy="89.25"
     inkscape:window-width="1920"
     inkscape:window-height="991"
     inkscape:window-x="-9"
     inkscape:window-y="-9"
     inkscape:window-maximized="1"
     inkscape:current-layer="layer2"
     fit-margin-top="0"
     fit-margin-left="0"
     fit-margin-right="0"
     fit-margin-bottom="0"
     showguides="false" />
  <defs
     id="defs2">
    <linearGradient
       inkscape:collect="always"
       id="linearGradient1867">
      <stop
         style="stop-color:#ffd42a;stop-opacity:1"
         offset="0"
         id="stop1863" />
      <stop
         style="stop-color:#806600;stop-opacity:1"
         offset="1"
         id="stop1865" />
    </linearGradient>
    <radialGradient
       inkscape:collect="always"
       xlink:href="#linearGradient1867"
       id="radialGradient4767"
       gradientUnits="userSpaceOnUse"
       gradientTransform="matrix(0.55556851,0,0,0.52164799,48.967726,48.692813)"
       cx="103.55092"
       cy="93.259171"
       fx="103.55092"
       fy="93.259171"
       r="22.05092" />
    <radialGradient
       inkscape:collect="always"
       xlink:href="#linearGradient1867"
       id="radialGradient4769"
       gradientUnits="userSpaceOnUse"
       gradientTransform="matrix(1,0,0,0.99810664,2.96907,4.2630514)"
       cx="103.55092"
       cy="93.259171"
       fx="103.55092"
       fy="93.259171"
       r="22.05092" />
    <radialGradient
       inkscape:collect="always"
       xlink:href="#linearGradient1867"
       id="radialGradient11530"
       cx="103.55092"
       cy="93.259171"
       fx="103.55092"
       fy="93.259171"
       r="22.05092"
       gradientTransform="matrix(1,0,0,0.99810665,0,0.17657179)"
       gradientUnits="userSpaceOnUse" />
    <radialGradient
       inkscape:collect="always"
       xlink:href="#linearGradient1867"
       id="radialGradient11538"
       gradientUnits="userSpaceOnUse"
       gradientTransform="matrix(0.55556851,0,0,0.52164799,45.998658,44.606335)"
       cx="103.55092"
       cy="93.259171"
       fx="103.55092"
       fy="93.259171"
       r="22.05092" />
    <radialGradient
       inkscape:collect="always"
       xlink:href="#linearGradient1867"
       id="radialGradient11546"
       gradientUnits="userSpaceOnUse"
       gradientTransform="matrix(1,0,0,0.99810665,0,0.17657179)"
       cx="103.55092"
       cy="93.259171"
       fx="103.55092"
       fy="93.259171"
       r="22.05092" />
    <radialGradient
       inkscape:collect="always"
       xlink:href="#linearGradient1867"
       id="radialGradient11554"
       gradientUnits="userSpaceOnUse"
       gradientTransform="matrix(1,0,0,0.99810665,0.00149966,-0.84079433)"
       cx="103.55092"
       cy="93.259171"
       fx="103.55092"
       fy="93.259171"
       r="22.05092" />
    <radialGradient
       inkscape:collect="always"
       xlink:href="#linearGradient1867"
       id="radialGradient11562"
       gradientUnits="userSpaceOnUse"
       gradientTransform="matrix(1,0,0,0.99810665,8.5266142e-4,-1.7577943)"
       cx="103.55092"
       cy="93.259171"
       fx="103.55092"
       fy="93.259171"
       r="22.05092" />
    <radialGradient
       inkscape:collect="always"
       xlink:href="#linearGradient1867"
       id="radialGradient11570"
       gradientUnits="userSpaceOnUse"
       gradientTransform="matrix(1,0,0,0.99810665,0,-2.4267943)"
       cx="103.55092"
       cy="93.259171"
       fx="103.55092"
       fy="93.259171"
       r="22.05092" />
    <radialGradient
       inkscape:collect="always"
       xlink:href="#linearGradient1867"
       id="radialGradient11578"
       gradientUnits="userSpaceOnUse"
       gradientTransform="matrix(1,0,0,0.99810665,0,-3.2197943)"
       cx="103.55092"
       cy="93.259171"
       fx="103.55092"
       fy="93.259171"
       r="22.05092" />
    <radialGradient
       inkscape:collect="always"
       xlink:href="#linearGradient1867"
       id="radialGradient11586"
       gradientUnits="userSpaceOnUse"
       gradientTransform="matrix(1,0,0,0.99810665,0,0.17657179)"
       cx="103.55092"
       cy="93.259171"
       fx="103.55092"
       fy="93.259171"
       r="22.05092" />
    <radialGradient
       inkscape:collect="always"
       xlink:href="#linearGradient1867"
       id="radialGradient11594"
       gradientUnits="userSpaceOnUse"
       gradientTransform="matrix(1.1224986,0,0,0.99128067,-14.715799,0.81639406)"
       cx="103.55092"
       cy="93.259171"
       fx="103.55092"
       fy="93.259171"
       r="22.05092" />
    <radialGradient
       inkscape:collect="always"
       xlink:href="#linearGradient1867"
       id="radialGradient11602"
       gradientUnits="userSpaceOnUse"
       gradientTransform="matrix(1.1224986,0,0,0.99128067,-14.715799,-0.05298557)"
       cx="103.55092"
       cy="93.259171"
       fx="103.55092"
       fy="93.259171"
       r="22.05092" />
    <radialGradient
       inkscape:collect="always"
       xlink:href="#linearGradient1867"
       id="radialGradient11610"
       gradientUnits="userSpaceOnUse"
       gradientTransform="matrix(1.1224986,0,0,0.99128067,-14.715799,-0.67371113)"
       cx="103.55092"
       cy="93.259171"
       fx="103.55092"
       fy="93.259171"
       r="22.05092" />
    <radialGradient
       inkscape:collect="always"
       xlink:href="#linearGradient1867"
       id="radialGradient11618"
       gradientUnits="userSpaceOnUse"
       gradientTransform="matrix(1.1224986,0,0,0.99128067,-14.715799,2.0574818)"
       cx="103.55092"
       cy="93.259171"
       fx="103.55092"
       fy="93.259171"
       r="22.05092" />
    <radialGradient
       inkscape:collect="always"
       xlink:href="#linearGradient1867"
       id="radialGradient11626"
       gradientUnits="userSpaceOnUse"
       gradientTransform="matrix(1.1224986,0,0,0.99128067,-14.715799,0.81639406)"
       cx="103.55092"
       cy="93.259171"
       fx="103.55092"
       fy="93.259171"
       r="22.05092" />
    <radialGradient
       inkscape:collect="always"
       xlink:href="#linearGradient1867"
       id="radialGradient11634"
       gradientUnits="userSpaceOnUse"
       gradientTransform="matrix(1,0,0,0.99810665,0,0.17657179)"
       cx="103.55092"
       cy="93.259171"
       fx="103.55092"
       fy="93.259171"
       r="22.05092" />
    <radialGradient
       inkscape:collect="always"
       xlink:href="#linearGradient1867"
       id="radialGradient11642"
       gradientUnits="userSpaceOnUse"
       gradientTransform="matrix(1,0,0,0.99810665,0.87499966,0.17657179)"
       cx="103.55092"
       cy="93.259171"
       fx="103.55092"
       fy="93.259171"
       r="22.05092" />
    <radialGradient
       inkscape:collect="always"
       xlink:href="#linearGradient1867"
       id="radialGradient11650"
       gradientUnits="userSpaceOnUse"
       gradientTransform="matrix(1,0,0,0.99810665,1.7499997,0.17657179)"
       cx="103.55092"
       cy="93.259171"
       fx="103.55092"
       fy="93.259171"
       r="22.05092" />
    <radialGradient
       inkscape:collect="always"
       xlink:href="#linearGradient1867"
       id="radialGradient11658"
       gradientUnits="userSpaceOnUse"
       gradientTransform="matrix(1,0,0,0.99810665,-0.87500034,0.17657179)"
       cx="103.55092"
       cy="93.259171"
       fx="103.55092"
       fy="93.259171"
       r="22.05092" />
    <radialGradient
       inkscape:collect="always"
       xlink:href="#linearGradient1867"
       id="radialGradient11666"
       gradientUnits="userSpaceOnUse"
       gradientTransform="matrix(1,0,0,0.99810665,0,0.17657179)"
       cx="103.55092"
       cy="93.259171"
       fx="103.55092"
       fy="93.259171"
       r="22.05092" />
    <radialGradient
       inkscape:collect="always"
       xlink:href="#linearGradient1867"
       id="radialGradient11674"
       gradientUnits="userSpaceOnUse"
       gradientTransform="matrix(1,0,0,0.99810665,0,0.17657179)"
       cx="103.55092"
       cy="93.259171"
       fx="103.55092"
       fy="93.259171"
       r="22.05092" />
    <radialGradient
       inkscape:collect="always"
       xlink:href="#linearGradient1867"
       id="radialGradient11682"
       gradientUnits="userSpaceOnUse"
       gradientTransform="matrix(1,0,0,0.99810665,-1.7500003,0.17657179)"
       cx="103.55092"
       cy="93.259171"
       fx="103.55092"
       fy="93.259171"
       r="22.05092" />
    <radialGradient
       inkscape:collect="always"
       xlink:href="#linearGradient1867"
       id="radialGradient11690"
       gradientUnits="userSpaceOnUse"
       gradientTransform="matrix(1,0,0,0.99810665,0.87499966,0.17657179)"
       cx="103.55092"
       cy="93.259171"
       fx="103.55092"
       fy="93.259171"
       r="22.05092" />
    <radialGradient
       inkscape:collect="always"
       xlink:href="#linearGradient1867"
       id="radialGradient11698"
       gradientUnits="userSpaceOnUse"
       gradientTransform="matrix(1,0,0,0.99810665,-0.87500034,0.17657179)"
       cx="103.55092"
       cy="93.259171"
       fx="103.55092"
       fy="93.259171"
       r="22.05092" />
    <radialGradient
       inkscape:collect="always"
       xlink:href="#linearGradient1867"
       id="radialGradient11706"
       gradientUnits="userSpaceOnUse"
       gradientTransform="matrix(1,0,0,0.99810665,0,0.17657179)"
       cx="103.55092"
       cy="93.259171"
       fx="103.55092"
       fy="93.259171"
       r="22.05092" />
    <radialGradient
       inkscape:collect="always"
       xlink:href="#linearGradient1867"
       id="radialGradient4767-6"
       gradientUnits="userSpaceOnUse"
       gradientTransform="matrix(0.55556851,0,0,0.52164799,113.96689,48.692876)"
       cx="103.55092"
       cy="93.259171"
       fx="103.55092"
       fy="93.259171"
       r="22.05092" />
    <radialGradient
       inkscape:collect="always"
       xlink:href="#linearGradient1867"
       id="radialGradient4769-3"
       gradientUnits="userSpaceOnUse"
       gradientTransform="matrix(1,0,0,0.99810664,67.96823,4.2631123)"
       cx="103.55092"
       cy="93.259171"
       fx="103.55092"
       fy="93.259171"
       r="22.05092" />
    <radialGradient
       inkscape:collect="always"
       xlink:href="#linearGradient1867"
       id="radialGradient4767-6-4"
       gradientUnits="userSpaceOnUse"
       gradientTransform="matrix(0.55556851,0,0,0.52164799,178.96688,48.692876)"
       cx="103.55092"
       cy="93.259171"
       fx="103.55092"
       fy="93.259171"
       r="22.05092" />
    <radialGradient
       inkscape:collect="always"
       xlink:href="#linearGradient1867"
       id="radialGradient4767-6-4-3"
       gradientUnits="userSpaceOnUse"
       gradientTransform="matrix(0.55556851,0,0,0.52164799,243.96688,48.692876)"
       cx="103.55092"
       cy="93.259171"
       fx="103.55092"
       fy="93.259171"
       r="22.05092" />
    <radialGradient
       inkscape:collect="always"
       xlink:href="#linearGradient1867"
       id="radialGradient4767-6-4-3-1"
       gradientUnits="userSpaceOnUse"
       gradientTransform="matrix(0.55556851,0,0,0.52164799,308.96689,48.692876)"
       cx="103.55092"
       cy="93.259171"
       fx="103.55092"
       fy="93.259171"
       r="22.05092" />
  </defs>
  <g
     inkscape:groupmode="layer"
     id="layer2"
     inkscape:label="Layer 2"
     style="display:inline"
     transform="translate(-8.3862142e-4,6.2808583e-5)">
    <rect
       style="fill:#000000;fill-opacity:1;stroke:#ffffff;stroke-width:0.664438;stroke-miterlimit:4.3;stroke-dasharray:none;stroke-opacity:1"
       id="rect26211"
       width="310.48892"
       height="49.176605"
       x="0.0039937277"
       y="0.080586948" />
  </g>
  <g
     inkscape:label="Layer 1"
     inkscape:groupmode="layer"
     id="layer1"
     transform="translate(-81.385084,-72.647415)">
    <path
       style="color:#000000;fill:#008c0e;fill-opacity:0;stroke:none;stroke-width:5;stroke-linejoin:round;stroke-miterlimit:4.3;stroke-opacity:1;-inkscape-stroke:none"
       d="M 99.773511,91.037802 H 113.16463 V 103.63516 H 99.773511 Z"
       id="path18812" />
    <path
       style="color:#000000;fill:url(#radialGradient4767);stroke:none;stroke-linejoin:round;stroke-miterlimit:4.3;stroke-opacity:1;-inkscape-stroke:none"
       d="m 99.773755,88.53765 a 2.50025,2.50025 0 0 0 -2.5,2.5 v 12.59765 a 2.50025,2.50025 0 0 0 2.5,2.5 h 13.390625 a 2.50025,2.50025 0 0 0 2.5,-2.5 V 91.03765 a 2.50025,2.50025 0 0 0 -2.5,-2.5 z m 2.499995,5 h 8.39063 v 7.59766 h -8.39063 z"
       id="path18815" />
    <path
       id="path18818"
       style="color:#000000;fill:url(#radialGradient4769);stroke:none;stroke-width:1;stroke-linejoin:round;stroke-miterlimit:10;stroke-opacity:1;-inkscape-stroke:none"
       d="m 94.701584,74.234915 a 1.584,1.584 0 0 0 -1.583883,1.583883 V 77.7701 h -0.425814 c -2.964508,0 -5.455669,2.30416 -5.758305,5.197098 h -1.98024 a 1.584,1.584 0 0 0 -1.583883,1.583883 1.584,1.584 0 0 0 1.583883,1.5844 h 1.949235 v 2.915584 h -1.949235 a 1.584,1.584 0 0 0 -1.583883,1.584399 1.584,1.584 0 0 0 1.583883,1.583883 h 1.949235 v 3.162081 h -1.949235 a 1.584,1.584 0 0 0 -1.583883,1.583882 1.584,1.584 0 0 0 1.583883,1.583883 h 1.949235 v 3.039087 h -1.949235 a 1.584,1.584 0 0 0 -1.583883,1.58389 1.584,1.584 0 0 0 1.583883,1.5844 h 1.949235 v 3.72845 h -1.949235 a 1.584,1.584 0 0 0 -1.583883,1.58388 1.584,1.584 0 0 0 1.583883,1.58389 h 1.976106 c 0.277574,2.91773 2.77986,5.25032 5.762439,5.25032 h 0.425814 v 1.96836 a 1.584,1.584 0 0 0 1.583883,1.5844 1.584,1.584 0 0 0 1.583882,-1.5844 v -1.96836 h 2.956926 v 1.96836 a 1.584,1.584 0 0 0 1.583878,1.5844 1.584,1.584 0 0 0 1.5844,-1.5844 v -1.96836 h 2.95693 v 1.96836 a 1.584,1.584 0 0 0 1.58388,1.5844 1.584,1.584 0 0 0 1.58388,-1.5844 v -1.96836 h 2.95693 v 1.96836 a 1.584,1.584 0 0 0 1.5844,1.5844 1.584,1.584 0 0 0 1.58388,-1.5844 v -1.96836 h 2.95693 v 1.96836 a 1.584,1.584 0 0 0 1.58388,1.5844 1.584,1.584 0 0 0 1.58388,-1.5844 v -1.99523 c 2.76784,-0.26331 5.00723,-2.5289 5.23017,-5.30717 h 0.10232 2.58176 a 1.583775,1.583775 0 0 0 1.58388,-1.5844 1.583775,1.583775 0 0 0 -1.58388,-1.58388 h -2.58176 -0.0822 v -2.543 h 0.0822 2.58176 a 1.583775,1.583775 0 0 0 1.58388,-1.58388 1.583775,1.583775 0 0 0 -1.58388,-1.58388 h -2.58176 -0.0822 v -3.039096 h 2.66392 a 1.583775,1.583775 0 0 0 1.58181,-1.583882 1.583775,1.583775 0 0 0 -1.58181,-1.583883 h -2.66392 v -3.164148 h 2.66185 a 1.583775,1.583775 0 0 0 1.58388,-1.583882 1.583775,1.583775 0 0 0 -1.58388,-1.5844 h -2.66185 v -2.914034 h 2.66185 a 1.584,1.584 0 0 0 1.58388,-1.583882 1.584,1.584 0 0 0 -1.58388,-1.583883 h -2.66185 v -0.510047 c 0,-2.98258 -2.33259,-5.484868 -5.25033,-5.762438 v -1.977657 a 1.584,1.584 0 0 0 -1.58388,-1.583883 1.584,1.584 0 0 0 -1.58388,1.583883 V 77.7701 h -2.95693 v -1.951302 a 1.584,1.584 0 0 0 -1.58388,-1.583883 1.584,1.584 0 0 0 -1.5844,1.583883 V 77.7701 h -2.95693 v -1.951302 a 1.584,1.584 0 0 0 -1.58388,-1.583883 1.584,1.584 0 0 0 -1.58388,1.583883 V 77.7701 h -2.95693 v -1.951302 a 1.584,1.584 0 0 0 -1.5844,-1.583883 1.584,1.584 0 0 0 -1.583878,1.583883 V 77.7701 h -2.956926 v -1.951302 a 1.584,1.584 0 0 0 -1.583882,-1.583883 z m -2.009697,8.535396 h 27.554393 c 0.48072,0 0.7891,0.307878 0.7891,0.788582 V 111.1138 c 0,0.48072 -0.30838,0.7891 -0.7891,0.7891 H 92.691887 c -0.480705,0 -0.789099,-0.30838 -0.789099,-0.7891 V 83.558893 c 0,-0.480704 0.308394,-0.788582 0.789099,-0.788582 z" />
    <path
       style="color:#000000;fill:#008c0e;fill-opacity:0;stroke:none;stroke-width:5;stroke-linejoin:round;stroke-miterlimit:4.3;stroke-opacity:1;-inkscape-stroke:none"
       d="m 164.77267,91.037865 h 13.39112 v 12.597355 h -13.39112 z"
       id="path18812-5" />
    <path
       style="color:#000000;fill:url(#radialGradient4767-6);stroke:none;stroke-linejoin:round;stroke-miterlimit:4.3;stroke-opacity:1;-inkscape-stroke:none"
       d="m 164.77292,88.537713 a 2.50025,2.50025 0 0 0 -2.5,2.5 v 12.597647 a 2.50025,2.50025 0 0 0 2.5,2.5 h 13.39062 a 2.50025,2.50025 0 0 0 2.5,-2.5 V 91.037713 a 2.50025,2.50025 0 0 0 -2.5,-2.5 z m 2.49999,5 h 8.39063 v 7.597657 h -8.39063 z"
       id="path18815-6" />
    <path
       id="path18818-5"
       style="color:#000000;fill:url(#radialGradient4769-3);stroke:none;stroke-width:1;stroke-linejoin:round;stroke-miterlimit:10;stroke-opacity:1;-inkscape-stroke:none"
       d="m 159.70072,74.234915 a 1.584,1.584 0 0 0 -1.58389,1.583883 V 77.7701 h -0.42581 c -2.96451,0 -5.45567,2.30416 -5.7583,5.197098 h -1.98025 a 1.584,1.584 0 0 0 -1.58388,1.5844 1.584,1.584 0 0 0 1.58388,1.583883 h 1.94924 v 2.9161 h -1.94924 a 1.584,1.584 0 0 0 -1.58388,1.583883 1.584,1.584 0 0 0 1.58388,1.583883 h 1.94924 v 3.162081 h -1.94924 a 1.584,1.584 0 0 0 -1.58388,1.583882 1.584,1.584 0 0 0 1.58388,1.583883 h 1.94924 v 3.039087 h -1.94924 a 1.584,1.584 0 0 0 -1.58388,1.5844 1.584,1.584 0 0 0 1.58388,1.58389 h 1.94924 v 3.72845 h -1.94924 a 1.584,1.584 0 0 0 -1.58388,1.58388 1.584,1.584 0 0 0 1.58388,1.58389 h 1.97611 c 0.27757,2.91773 2.77986,5.25032 5.76244,5.25032 h 0.42581 v 1.96836 a 1.584,1.584 0 0 0 1.58389,1.5844 1.584,1.584 0 0 0 1.58388,-1.5844 v -1.96836 h 2.95692 v 1.96836 a 1.584,1.584 0 0 0 1.58389,1.5844 1.584,1.584 0 0 0 1.5844,-1.5844 v -1.96836 h 2.95692 v 1.96836 a 1.584,1.584 0 0 0 1.58388,1.5844 1.584,1.584 0 0 0 1.58389,-1.5844 v -1.96836 h 2.95692 v 1.96836 a 1.584,1.584 0 0 0 1.5844,1.5844 1.584,1.584 0 0 0 1.58388,-1.5844 v -1.96836 h 2.95693 v 1.96836 a 1.584,1.584 0 0 0 1.58388,1.5844 1.584,1.584 0 0 0 1.58389,-1.5844 v -1.99523 c 2.76783,-0.26331 5.00722,-2.5289 5.23017,-5.30717 h 0.10232 2.58175 a 1.583775,1.583775 0 0 0 1.58388,-1.58388 1.583775,1.583775 0 0 0 -1.58388,-1.5844 h -2.58175 -0.0822 v -2.543 h 0.0822 2.58175 a 1.583775,1.583775 0 0 0 1.58388,-1.58388 1.583775,1.583775 0 0 0 -1.58388,-1.58388 h -2.58175 -0.0822 v -3.039096 h 2.66392 a 1.583775,1.583775 0 0 0 1.58233,-1.583882 1.583775,1.583775 0 0 0 -1.58233,-1.583883 h -2.66392 v -3.164148 h 2.66185 a 1.583775,1.583775 0 0 0 1.5844,-1.583882 1.583775,1.583775 0 0 0 -1.5844,-1.5844 h -2.66185 v -2.914034 h 2.66185 a 1.584,1.584 0 0 0 1.5844,-1.583882 1.584,1.584 0 0 0 -1.5844,-1.583883 h -2.66185 v -0.50953 c 0,-2.982578 -2.33259,-5.484865 -5.25032,-5.762438 v -1.978174 a 1.584,1.584 0 0 0 -1.58389,-1.583883 1.584,1.584 0 0 0 -1.58388,1.583883 V 77.7701 h -2.95693 v -1.951302 a 1.584,1.584 0 0 0 -1.58388,-1.583883 1.584,1.584 0 0 0 -1.5844,1.583883 V 77.7701 h -2.95692 v -1.951302 a 1.584,1.584 0 0 0 -1.58389,-1.583883 1.584,1.584 0 0 0 -1.58388,1.583883 V 77.7701 h -2.95692 v -1.951302 a 1.584,1.584 0 0 0 -1.5844,-1.583883 1.584,1.584 0 0 0 -1.58389,1.583883 V 77.7701 h -2.95692 v -1.951302 a 1.584,1.584 0 0 0 -1.58388,-1.583883 z m 65.00016,0 a 1.584,1.584 0 0 0 -1.5844,1.583883 V 77.7701 h -0.42581 c -2.96451,0 -5.45567,2.304159 -5.75831,5.197098 h -1.97972 a 1.584,1.584 0 0 0 -1.58388,1.5844 1.584,1.584 0 0 0 1.58388,1.583883 h 1.94923 v 2.9161 h -1.94923 a 1.584,1.584 0 0 0 -1.58388,1.583883 1.584,1.584 0 0 0 1.58388,1.583883 h 1.94923 v 3.162081 h -1.94923 a 1.584,1.584 0 0 0 -1.58388,1.583882 1.584,1.584 0 0 0 1.58388,1.583883 h 1.94923 v 3.039087 h -1.94923 a 1.584,1.584 0 0 0 -1.58388,1.5844 1.584,1.584 0 0 0 1.58388,1.58389 h 1.94923 v 3.72845 h -1.94923 a 1.584,1.584 0 0 0 -1.58388,1.58388 1.584,1.584 0 0 0 1.58388,1.58389 h 1.97559 c 0.27757,2.91774 2.77986,5.25032 5.76244,5.25032 h 0.42581 v 1.96836 a 1.584,1.584 0 0 0 1.5844,1.5844 1.584,1.584 0 0 0 1.58388,-1.5844 v -1.96836 h 2.95693 v 1.96836 a 1.584,1.584 0 0 0 1.58388,1.5844 1.584,1.584 0 0 0 1.58389,-1.5844 v -1.96836 h 2.95744 v 1.96836 a 1.584,1.584 0 0 0 1.58388,1.5844 1.584,1.584 0 0 0 1.58388,-1.5844 v -1.96836 h 2.95693 v 1.96836 a 1.584,1.584 0 0 0 1.58388,1.5844 1.584,1.584 0 0 0 1.5844,-1.5844 v -1.96836 h 2.95692 v 1.96836 a 1.584,1.584 0 0 0 1.58389,1.5844 1.584,1.584 0 0 0 1.58388,-1.5844 v -1.99523 c 2.76784,-0.26331 5.00723,-2.5289 5.23017,-5.30717 h 0.1018 2.58228 a 1.583775,1.583775 0 0 0 1.58388,-1.58388 1.583775,1.583775 0 0 0 -1.58388,-1.5844 h -2.58228 -0.0816 v -2.543 h 0.0816 2.58228 a 1.583775,1.583775 0 0 0 1.58388,-1.58388 1.583775,1.583775 0 0 0 -1.58388,-1.58388 h -2.58228 -0.0816 v -3.039096 h 2.66392 a 1.583775,1.583775 0 0 0 1.58181,-1.583882 1.583775,1.583775 0 0 0 -1.58181,-1.583883 h -2.66392 v -3.164148 h 2.66185 a 1.583775,1.583775 0 0 0 1.58388,-1.583882 1.583775,1.583775 0 0 0 -1.58388,-1.5844 h -2.66185 v -2.914034 h 2.66185 a 1.584,1.584 0 0 0 1.58388,-1.583882 1.584,1.584 0 0 0 -1.58388,-1.583883 h -2.66185 v -0.50953 c 0,-2.982578 -2.33259,-5.484865 -5.25033,-5.762438 v -1.978174 a 1.584,1.584 0 0 0 -1.58388,-1.583883 1.584,1.584 0 0 0 -1.58389,1.583883 V 77.7701 h -2.95692 v -1.951302 a 1.584,1.584 0 0 0 -1.5844,-1.583883 1.584,1.584 0 0 0 -1.58388,1.583883 V 77.7701 h -2.95693 v -1.951302 a 1.584,1.584 0 0 0 -1.58388,-1.583883 1.584,1.584 0 0 0 -1.58388,1.583883 V 77.7701 h -2.95744 v -1.951302 a 1.584,1.584 0 0 0 -1.58389,-1.583883 1.584,1.584 0 0 0 -1.58388,1.583883 V 77.7701 h -2.95693 v -1.951302 a 1.584,1.584 0 0 0 -1.58388,-1.583883 z m 64.99965,0 a 1.584,1.584 0 0 0 -1.58388,1.583883 V 77.7701 h -0.42582 c -2.9645,0 -5.45566,2.30416 -5.7583,5.197098 h -1.97972 a 1.584,1.584 0 0 0 -1.5844,1.5844 1.584,1.584 0 0 0 1.5844,1.583883 h 1.94923 v 2.9161 h -1.94923 a 1.584,1.584 0 0 0 -1.5844,1.583883 1.584,1.584 0 0 0 1.5844,1.583883 h 1.94923 v 3.162081 h -1.94923 a 1.584,1.584 0 0 0 -1.5844,1.583882 1.584,1.584 0 0 0 1.5844,1.583883 h 1.94923 v 3.039087 h -1.94923 a 1.584,1.584 0 0 0 -1.5844,1.5844 1.584,1.584 0 0 0 1.5844,1.58389 h 1.94923 v 3.72845 h -1.94923 a 1.584,1.584 0 0 0 -1.5844,1.58388 1.584,1.584 0 0 0 1.5844,1.58389 h 1.97558 c 0.27758,2.91773 2.77987,5.25032 5.76244,5.25032 h 0.42582 v 1.96836 a 1.584,1.584 0 0 0 1.58388,1.5844 1.584,1.584 0 0 0 1.58388,-1.5844 v -1.96836 h 2.95745 v 1.96836 a 1.584,1.584 0 0 0 1.58388,1.5844 1.584,1.584 0 0 0 1.58388,-1.5844 v -1.96836 h 2.95693 v 1.96836 a 1.584,1.584 0 0 0 1.58388,1.5844 1.584,1.584 0 0 0 1.5844,-1.5844 v -1.96836 h 2.95693 v 1.96836 a 1.584,1.584 0 0 0 1.58388,1.5844 1.584,1.584 0 0 0 1.58388,-1.5844 v -1.96836 h 2.95692 v 1.96836 a 1.584,1.584 0 0 0 1.5844,1.5844 1.584,1.584 0 0 0 1.58389,-1.5844 v -1.99523 c 2.76783,-0.26331 5.0067,-2.52891 5.22965,-5.30717 h 0.10232 2.58176 a 1.583775,1.583775 0 0 0 1.5844,-1.58388 1.583775,1.583775 0 0 0 -1.5844,-1.5844 h -2.58176 -0.0822 v -2.543 h 0.0822 2.58176 a 1.583775,1.583775 0 0 0 1.5844,-1.58388 1.583775,1.583775 0 0 0 -1.5844,-1.58388 h -2.58176 -0.0822 v -3.039096 h 2.66392 a 1.583775,1.583775 0 0 0 1.58233,-1.583882 1.583775,1.583775 0 0 0 -1.58233,-1.583883 h -2.66392 v -3.164148 h 2.66237 a 1.583775,1.583775 0 0 0 1.58388,-1.583882 1.583775,1.583775 0 0 0 -1.58388,-1.5844 h -2.66237 v -2.914034 h 2.66237 a 1.584,1.584 0 0 0 1.58388,-1.583882 1.584,1.584 0 0 0 -1.58388,-1.583883 h -2.66237 v -0.50953 c 0,-2.982578 -2.33208,-5.484865 -5.24981,-5.762438 v -1.978174 a 1.584,1.584 0 0 0 -1.58389,-1.583883 1.584,1.584 0 0 0 -1.5844,1.583883 V 77.7701 h -2.95692 v -1.951302 a 1.584,1.584 0 0 0 -1.58388,-1.583883 1.584,1.584 0 0 0 -1.58388,1.583883 V 77.7701 h -2.95693 v -1.951302 a 1.584,1.584 0 0 0 -1.5844,-1.583883 1.584,1.584 0 0 0 -1.58388,1.583883 V 77.7701 h -2.95693 v -1.951302 a 1.584,1.584 0 0 0 -1.58388,-1.583883 1.584,1.584 0 0 0 -1.58388,1.583883 V 77.7701 h -2.95745 v -1.951302 a 1.584,1.584 0 0 0 -1.58388,-1.583883 z m 65.00017,0 a 1.584,1.584 0 0 0 -1.58388,1.583883 V 77.7701 H 352.691 c -2.9645,0 -5.45567,2.30416 -5.7583,5.197098 h -1.98024 a 1.584,1.584 0 0 0 -1.58389,1.5844 1.584,1.584 0 0 0 1.58389,1.583883 h 1.94923 v 2.9161 h -1.94923 a 1.584,1.584 0 0 0 -1.58389,1.583883 1.584,1.584 0 0 0 1.58389,1.583883 h 1.94923 v 3.162081 h -1.94923 a 1.584,1.584 0 0 0 -1.58389,1.583882 1.584,1.584 0 0 0 1.58389,1.583883 h 1.94923 v 3.039087 h -1.94923 a 1.584,1.584 0 0 0 -1.58389,1.5844 1.584,1.584 0 0 0 1.58389,1.58389 h 1.94923 v 3.72845 h -1.94923 a 1.584,1.584 0 0 0 -1.58389,1.58388 1.584,1.584 0 0 0 1.58389,1.58389 h 1.9761 c 0.27757,2.91773 2.77987,5.25032 5.76244,5.25032 h 0.42582 v 1.96836 a 1.584,1.584 0 0 0 1.58388,1.5844 1.584,1.584 0 0 0 1.58387,-1.5844 v -1.96836 h 2.95693 v 1.96836 a 1.584,1.584 0 0 0 1.58441,1.5844 1.584,1.584 0 0 0 1.58387,-1.5844 v -1.96836 h 2.95693 v 1.96836 a 1.584,1.584 0 0 0 1.58388,1.5844 1.584,1.584 0 0 0 1.5839,-1.5844 v -1.96836 h 2.95743 v 1.96836 a 1.584,1.584 0 0 0 1.58388,1.5844 1.584,1.584 0 0 0 1.5839,-1.5844 v -1.96836 h 2.9569 v 1.96836 a 1.584,1.584 0 0 0 1.5839,1.5844 1.584,1.584 0 0 0 1.58438,-1.5844 v -1.99523 c 2.76762,-0.26354 5.00674,-2.52907 5.22968,-5.30717 h 0.10231 2.58175 a 1.583775,1.583775 0 0 0 1.58388,-1.58388 1.583775,1.583775 0 0 0 -1.58388,-1.5844 h -2.58175 -0.0822 v -2.543 h 0.0822 2.58175 a 1.583775,1.583775 0 0 0 1.58388,-1.58388 1.583775,1.583775 0 0 0 -1.58388,-1.58388 h -2.58175 -0.0822 v -3.039096 h 2.66393 a 1.583775,1.583775 0 0 0 1.58234,-1.583882 1.583775,1.583775 0 0 0 -1.58234,-1.583883 h -2.66393 v -3.164148 h 2.66187 a 1.583775,1.583775 0 0 0 1.5844,-1.583882 1.583775,1.583775 0 0 0 -1.5844,-1.5844 h -2.66187 v -2.914034 h 2.66187 a 1.584,1.584 0 0 0 1.5844,-1.583882 1.584,1.584 0 0 0 -1.5844,-1.583883 h -2.66187 v -0.50953 c 0,-2.982404 -2.3323,-5.484621 -5.24981,-5.762438 v -1.978174 a 1.584,1.584 0 0 0 -1.58438,-1.583883 1.584,1.584 0 0 0 -1.5839,1.583883 V 77.7701 h -2.9569 v -1.951302 a 1.584,1.584 0 0 0 -1.5839,-1.583883 1.584,1.584 0 0 0 -1.58388,1.583883 V 77.7701 h -2.95743 v -1.951302 a 1.584,1.584 0 0 0 -1.5839,-1.583883 1.584,1.584 0 0 0 -1.58388,1.583883 V 77.7701 h -2.95693 v -1.951302 a 1.584,1.584 0 0 0 -1.58387,-1.583883 1.584,1.584 0 0 0 -1.58441,1.583883 V 77.7701 h -2.95693 v -1.951302 a 1.584,1.584 0 0 0 -1.58387,-1.583883 z m -197.00968,8.535396 h 27.55439 c 0.48072,0 0.7891,0.308394 0.7891,0.789099 v 27.55439 c 0,0.48072 -0.30838,0.7891 -0.7891,0.7891 h -27.55439 c -0.48071,0 -0.7891,-0.30838 -0.7891,-0.7891 V 83.55941 c 0,-0.480705 0.30839,-0.789099 0.7891,-0.789099 z m 64.99965,0 h 27.55491 c 0.48072,0 0.78909,0.308394 0.78909,0.789099 v 27.55439 c 0,0.48072 -0.30837,0.7891 -0.78909,0.7891 h -27.55491 c -0.4807,0 -0.7891,-0.30838 -0.7891,-0.7891 V 83.55941 c 0,-0.480705 0.3084,-0.789099 0.7891,-0.789099 z m 65.00016,0 h 27.55491 c 0.48072,0 0.7891,0.308394 0.7891,0.789099 v 27.55439 c 0,0.48072 -0.30838,0.7891 -0.7891,0.7891 h -27.55491 c -0.4807,0 -0.78909,-0.30838 -0.78909,-0.7891 V 83.55941 c 0,-0.480705 0.30839,-0.789099 0.78909,-0.789099 z m 65.00017,0 h 27.5544 c 0.48072,0 0.78909,0.308394 0.78909,0.789099 v 27.55439 c 0,0.48072 -0.30837,0.7891 -0.78909,0.7891 H 352.691 c -0.48069,0 -0.78909,-0.30838 -0.78909,-0.7891 V 83.55941 c 0,-0.480705 0.3084,-0.789099 0.78909,-0.789099 z" />
    <path
       style="color:#000000;fill:#008c0e;fill-opacity:0;stroke:none;stroke-width:5;stroke-linejoin:round;stroke-miterlimit:4.3;stroke-opacity:1;-inkscape-stroke:none"
       d="m 229.77267,91.037865 h 13.39112 v 12.597365 h -13.39112 z"
       id="path18812-5-9" />
    <path
       style="color:#000000;fill:url(#radialGradient4767-6-4);stroke:none;stroke-linejoin:round;stroke-miterlimit:4.3;stroke-opacity:1;-inkscape-stroke:none"
       d="m 229.77291,88.537713 a 2.50025,2.50025 0 0 0 -2.5,2.5 v 12.597657 a 2.50025,2.50025 0 0 0 2.5,2.5 h 13.39063 a 2.50025,2.50025 0 0 0 2.5,-2.5 V 91.037713 a 2.50025,2.50025 0 0 0 -2.5,-2.5 z m 2.5,5 h 8.39063 v 7.597657 h -8.39063 z"
       id="path18815-6-8" />
    <path
       style="color:#000000;fill:#008c0e;fill-opacity:0;stroke:none;stroke-width:5;stroke-linejoin:round;stroke-miterlimit:4.3;stroke-opacity:1;-inkscape-stroke:none"
       d="m 294.77267,91.037865 h 13.39112 v 12.597365 h -13.39112 z"
       id="path18812-5-9-8" />
    <path
       style="color:#000000;fill:url(#radialGradient4767-6-4-3);stroke:none;stroke-linejoin:round;stroke-miterlimit:4.3;stroke-opacity:1;-inkscape-stroke:none"
       d="m 294.77291,88.537713 a 2.50025,2.50025 0 0 0 -2.5,2.5 v 12.597657 a 2.50025,2.50025 0 0 0 2.5,2.5 h 13.39063 a 2.50025,2.50025 0 0 0 2.5,-2.5 V 91.037713 a 2.50025,2.50025 0 0 0 -2.5,-2.5 z m 2.5,5 h 8.39063 v 7.597657 h -8.39063 z"
       id="path18815-6-8-4" />
    <path
       style="color:#000000;fill:#008c0e;fill-opacity:0;stroke:none;stroke-width:5;stroke-linejoin:round;stroke-miterlimit:4.3;stroke-opacity:1;-inkscape-stroke:none"
       d="m 359.77267,91.037865 h 13.39112 v 12.597365 h -13.39112 z"
       id="path18812-5-9-8-7" />
    <path
       style="color:#000000;fill:url(#radialGradient4767-6-4-3-1);stroke:none;stroke-linejoin:round;stroke-miterlimit:4.3;stroke-opacity:1;-inkscape-stroke:none"
       d="m 359.77291,88.537713 a 2.50025,2.50025 0 0 0 -2.5,2.5 v 12.597657 a 2.50025,2.50025 0 0 0 2.5,2.5 h 13.39063 a 2.50025,2.50025 0 0 0 2.5,-2.5 V 91.037713 a 2.50025,2.50025 0 0 0 -2.5,-2.5 z m 2.5,5 h 8.39063 v 7.597657 h -8.39063 z"
       id="path18815-6-8-4-0" />
    <rect
       style="fill:#080808;fill-opacity:0;stroke:none;stroke-width:0.264583"
       id="rect4412"
       width="280.52844"
       height="40.471691"
       x="86.318207"
       y="77.581802" />
  </g>
</svg>
