<?xml version="1.0" encoding="UTF-8" standalone="no"?>
<!-- Created with Inkscape (http://www.inkscape.org/) -->

<svg
   width="311.15335mm"
   height="49.841042mm"
   viewBox="0 0 311.15338 49.841042"
   version="1.1"
   id="svg5"
   inkscape:version="1.1.2 (b8e25be833, 2022-02-05)"
   sodipodi:docname="skill_level.svg"
   xmlns:inkscape="http://www.inkscape.org/namespaces/inkscape"
   xmlns:sodipodi="http://sodipodi.sourceforge.net/DTD/sodipodi-0.dtd"
   xmlns:xlink="http://www.w3.org/1999/xlink"
   xmlns="http://www.w3.org/2000/svg"
   xmlns:svg="http://www.w3.org/2000/svg">
  <sodipodi:namedview
     id="namedview7"
     pagecolor="#ffffff"
     bordercolor="#666666"
     borderopacity="1.0"
     inkscape:pageshadow="2"
     inkscape:pageopacity="0"
     inkscape:pagecheckerboard="true"
     inkscape:document-units="mm"
     showgrid="false"
     inkscape:zoom="1"
     inkscape:cx="972"
     inkscape:cy="78.5"
     inkscape:window-width="1920"
     inkscape:window-height="991"
     inkscape:window-x="-9"
     inkscape:window-y="-9"
     inkscape:window-maximized="1"
     inkscape:current-layer="layer2"
     fit-margin-top="0"
     fit-margin-left="0"
     fit-margin-right="0"
     fit-margin-bottom="0"
     showguides="false" />
  <defs
     id="defs2">
    <linearGradient
       inkscape:collect="always"
       id="linearGradient1867">
      <stop
         style="stop-color:#ffd42a;stop-opacity:1"
         offset="0"
         id="stop1863" />
      <stop
         style="stop-color:#806600;stop-opacity:1"
         offset="1"
         id="stop1865" />
    </linearGradient>
    <radialGradient
       inkscape:collect="always"
       xlink:href="#linearGradient1867"
       id="radialGradient11530"
       cx="103.55092"
       cy="93.259171"
       fx="103.55092"
       fy="93.259171"
       r="22.05092"
       gradientTransform="matrix(1,0,0,0.99810665,0,0.17657179)"
       gradientUnits="userSpaceOnUse" />
    <radialGradient
       inkscape:collect="always"
       xlink:href="#linearGradient1867"
       id="radialGradient11538"
       gradientUnits="userSpaceOnUse"
       gradientTransform="matrix(0.55556851,0,0,0.52164799,45.998658,44.606335)"
       cx="103.55092"
       cy="93.259171"
       fx="103.55092"
       fy="93.259171"
       r="22.05092" />
    <radialGradient
       inkscape:collect="always"
       xlink:href="#linearGradient1867"
       id="radialGradient11546"
       gradientUnits="userSpaceOnUse"
       gradientTransform="matrix(1,0,0,0.99810665,0,0.17657179)"
       cx="103.55092"
       cy="93.259171"
       fx="103.55092"
       fy="93.259171"
       r="22.05092" />
    <radialGradient
       inkscape:collect="always"
       xlink:href="#linearGradient1867"
       id="radialGradient11554"
       gradientUnits="userSpaceOnUse"
       gradientTransform="matrix(1,0,0,0.99810665,0.00149966,-0.84079433)"
       cx="103.55092"
       cy="93.259171"
       fx="103.55092"
       fy="93.259171"
       r="22.05092" />
    <radialGradient
       inkscape:collect="always"
       xlink:href="#linearGradient1867"
       id="radialGradient11562"
       gradientUnits="userSpaceOnUse"
       gradientTransform="matrix(1,0,0,0.99810665,8.5266142e-4,-1.7577943)"
       cx="103.55092"
       cy="93.259171"
       fx="103.55092"
       fy="93.259171"
       r="22.05092" />
    <radialGradient
       inkscape:collect="always"
       xlink:href="#linearGradient1867"
       id="radialGradient11570"
       gradientUnits="userSpaceOnUse"
       gradientTransform="matrix(1,0,0,0.99810665,0,-2.4267943)"
       cx="103.55092"
       cy="93.259171"
       fx="103.55092"
       fy="93.259171"
       r="22.05092" />
    <radialGradient
       inkscape:collect="always"
       xlink:href="#linearGradient1867"
       id="radialGradient11578"
       gradientUnits="userSpaceOnUse"
       gradientTransform="matrix(1,0,0,0.99810665,0,-3.2197943)"
       cx="103.55092"
       cy="93.259171"
       fx="103.55092"
       fy="93.259171"
       r="22.05092" />
    <radialGradient
       inkscape:collect="always"
       xlink:href="#linearGradient1867"
       id="radialGradient11586"
       gradientUnits="userSpaceOnUse"
       gradientTransform="matrix(1,0,0,0.99810665,0,0.17657179)"
       cx="103.55092"
       cy="93.259171"
       fx="103.55092"
       fy="93.259171"
       r="22.05092" />
    <radialGradient
       inkscape:collect="always"
       xlink:href="#linearGradient1867"
       id="radialGradient11594"
       gradientUnits="userSpaceOnUse"
       gradientTransform="matrix(1.1224986,0,0,0.99128067,-14.715799,0.81639406)"
       cx="103.55092"
       cy="93.259171"
       fx="103.55092"
       fy="93.259171"
       r="22.05092" />
    <radialGradient
       inkscape:collect="always"
       xlink:href="#linearGradient1867"
       id="radialGradient11602"
       gradientUnits="userSpaceOnUse"
       gradientTransform="matrix(1.1224986,0,0,0.99128067,-14.715799,-0.05298557)"
       cx="103.55092"
       cy="93.259171"
       fx="103.55092"
       fy="93.259171"
       r="22.05092" />
    <radialGradient
       inkscape:collect="always"
       xlink:href="#linearGradient1867"
       id="radialGradient11610"
       gradientUnits="userSpaceOnUse"
       gradientTransform="matrix(1.1224986,0,0,0.99128067,-14.715799,-0.67371113)"
       cx="103.55092"
       cy="93.259171"
       fx="103.55092"
       fy="93.259171"
       r="22.05092" />
    <radialGradient
       inkscape:collect="always"
       xlink:href="#linearGradient1867"
       id="radialGradient11618"
       gradientUnits="userSpaceOnUse"
       gradientTransform="matrix(1.1224986,0,0,0.99128067,-14.715799,2.0574818)"
       cx="103.55092"
       cy="93.259171"
       fx="103.55092"
       fy="93.259171"
       r="22.05092" />
    <radialGradient
       inkscape:collect="always"
       xlink:href="#linearGradient1867"
       id="radialGradient11626"
       gradientUnits="userSpaceOnUse"
       gradientTransform="matrix(1.1224986,0,0,0.99128067,-14.715799,0.81639406)"
       cx="103.55092"
       cy="93.259171"
       fx="103.55092"
       fy="93.259171"
       r="22.05092" />
    <radialGradient
       inkscape:collect="always"
       xlink:href="#linearGradient1867"
       id="radialGradient11634"
       gradientUnits="userSpaceOnUse"
       gradientTransform="matrix(1,0,0,0.99810665,0,0.17657179)"
       cx="103.55092"
       cy="93.259171"
       fx="103.55092"
       fy="93.259171"
       r="22.05092" />
    <radialGradient
       inkscape:collect="always"
       xlink:href="#linearGradient1867"
       id="radialGradient11642"
       gradientUnits="userSpaceOnUse"
       gradientTransform="matrix(1,0,0,0.99810665,0.87499966,0.17657179)"
       cx="103.55092"
       cy="93.259171"
       fx="103.55092"
       fy="93.259171"
       r="22.05092" />
    <radialGradient
       inkscape:collect="always"
       xlink:href="#linearGradient1867"
       id="radialGradient11650"
       gradientUnits="userSpaceOnUse"
       gradientTransform="matrix(1,0,0,0.99810665,1.7499997,0.17657179)"
       cx="103.55092"
       cy="93.259171"
       fx="103.55092"
       fy="93.259171"
       r="22.05092" />
    <radialGradient
       inkscape:collect="always"
       xlink:href="#linearGradient1867"
       id="radialGradient11658"
       gradientUnits="userSpaceOnUse"
       gradientTransform="matrix(1,0,0,0.99810665,-0.87500034,0.17657179)"
       cx="103.55092"
       cy="93.259171"
       fx="103.55092"
       fy="93.259171"
       r="22.05092" />
    <radialGradient
       inkscape:collect="always"
       xlink:href="#linearGradient1867"
       id="radialGradient11666"
       gradientUnits="userSpaceOnUse"
       gradientTransform="matrix(1,0,0,0.99810665,0,0.17657179)"
       cx="103.55092"
       cy="93.259171"
       fx="103.55092"
       fy="93.259171"
       r="22.05092" />
    <radialGradient
       inkscape:collect="always"
       xlink:href="#linearGradient1867"
       id="radialGradient11674"
       gradientUnits="userSpaceOnUse"
       gradientTransform="matrix(1,0,0,0.99810665,0,0.17657179)"
       cx="103.55092"
       cy="93.259171"
       fx="103.55092"
       fy="93.259171"
       r="22.05092" />
    <radialGradient
       inkscape:collect="always"
       xlink:href="#linearGradient1867"
       id="radialGradient11682"
       gradientUnits="userSpaceOnUse"
       gradientTransform="matrix(1,0,0,0.99810665,-1.7500003,0.17657179)"
       cx="103.55092"
       cy="93.259171"
       fx="103.55092"
       fy="93.259171"
       r="22.05092" />
    <radialGradient
       inkscape:collect="always"
       xlink:href="#linearGradient1867"
       id="radialGradient11690"
       gradientUnits="userSpaceOnUse"
       gradientTransform="matrix(1,0,0,0.99810665,0.87499966,0.17657179)"
       cx="103.55092"
       cy="93.259171"
       fx="103.55092"
       fy="93.259171"
       r="22.05092" />
    <radialGradient
       inkscape:collect="always"
       xlink:href="#linearGradient1867"
       id="radialGradient11698"
       gradientUnits="userSpaceOnUse"
       gradientTransform="matrix(1,0,0,0.99810665,-0.87500034,0.17657179)"
       cx="103.55092"
       cy="93.259171"
       fx="103.55092"
       fy="93.259171"
       r="22.05092" />
    <radialGradient
       inkscape:collect="always"
       xlink:href="#linearGradient1867"
       id="radialGradient11706"
       gradientUnits="userSpaceOnUse"
       gradientTransform="matrix(1,0,0,0.99810665,0,0.17657179)"
       cx="103.55092"
       cy="93.259171"
       fx="103.55092"
       fy="93.259171"
       r="22.05092" />
  </defs>
  <g
     inkscape:groupmode="layer"
     id="layer2"
     inkscape:label="Layer 2"
     style="display:inline"
     transform="translate(0.32822528,0.25163206)">
    <path
       id="rect26211"
       style="fill:#000000;fill-opacity:1;stroke:#00730c;stroke-width:2.50960633;stroke-miterlimit:4.30000019;stroke-dasharray:none;stroke-opacity:1"
       d="M 1.2558594 1.2558594 L 1.2558594 187.11914 L 1174.7578 187.11914 L 1174.7578 1.2558594 L 1.2558594 1.2558594 z M 51.574219 6.9511719 A 5.9867711 5.9867711 0 0 1 57.560547 12.9375 L 57.560547 20.3125 L 68.736328 20.3125 L 68.736328 12.9375 A 5.9867711 5.9867711 0 0 1 74.722656 6.9511719 A 5.9867711 5.9867711 0 0 1 80.710938 12.9375 L 80.710938 20.3125 L 91.886719 20.3125 L 91.886719 12.9375 A 5.9867711 5.9867711 0 0 1 97.873047 6.9511719 A 5.9867711 5.9867711 0 0 1 103.85938 12.9375 L 103.85938 20.3125 L 115.03516 20.3125 L 115.03516 12.9375 A 5.9867711 5.9867711 0 0 1 121.02344 6.9511719 A 5.9867711 5.9867711 0 0 1 127.00977 12.9375 L 127.00977 20.3125 L 138.18555 20.3125 L 138.18555 12.9375 A 5.9867711 5.9867711 0 0 1 144.17188 6.9511719 A 5.9867711 5.9867711 0 0 1 150.1582 12.9375 L 150.1582 20.412109 C 161.18588 21.461193 170.00195 30.918663 170.00195 42.191406 L 170.00195 44.119141 L 180.0625 44.119141 A 5.9867711 5.9867711 0 0 1 186.04883 50.105469 A 5.9867711 5.9867711 0 0 1 180.0625 56.091797 L 170.00195 56.091797 L 170.00195 67.105469 L 180.0625 67.105469 A 5.9859207 5.9859207 0 0 1 186.04883 73.09375 A 5.9859207 5.9859207 0 0 1 180.0625 79.080078 L 170.00195 79.080078 L 170.00195 91.039062 L 180.07031 91.039062 A 5.9859207 5.9859207 0 0 1 186.04883 97.025391 A 5.9859207 5.9859207 0 0 1 180.07031 103.01172 L 170.00195 103.01172 L 170.00195 114.49805 L 170.3125 114.49805 L 180.07031 114.49805 A 5.9859207 5.9859207 0 0 1 186.05664 120.48438 A 5.9859207 5.9859207 0 0 1 180.07031 126.4707 L 170.3125 126.4707 L 170.00195 126.4707 L 170.00195 136.08203 L 170.3125 136.08203 L 180.07031 136.08203 A 5.9859207 5.9859207 0 0 1 186.05664 142.06836 A 5.9859207 5.9859207 0 0 1 180.07031 148.05664 L 170.3125 148.05664 L 169.92578 148.05664 C 169.08317 158.55719 160.61933 167.12005 150.1582 168.11523 L 150.1582 175.65625 A 5.9867711 5.9867711 0 0 1 144.17188 181.64453 A 5.9867711 5.9867711 0 0 1 138.18555 175.65625 L 138.18555 168.2168 L 127.00977 168.2168 L 127.00977 175.65625 A 5.9867711 5.9867711 0 0 1 121.02344 181.64453 A 5.9867711 5.9867711 0 0 1 115.03516 175.65625 L 115.03516 168.2168 L 103.85938 168.2168 L 103.85938 175.65625 A 5.9867711 5.9867711 0 0 1 97.873047 181.64453 A 5.9867711 5.9867711 0 0 1 91.886719 175.65625 L 91.886719 168.2168 L 80.710938 168.2168 L 80.710938 175.65625 A 5.9867711 5.9867711 0 0 1 74.722656 181.64453 A 5.9867711 5.9867711 0 0 1 68.736328 175.65625 L 68.736328 168.2168 L 57.560547 168.2168 L 57.560547 175.65625 A 5.9867711 5.9867711 0 0 1 51.574219 181.64453 A 5.9867711 5.9867711 0 0 1 45.587891 175.65625 L 45.587891 168.2168 L 43.978516 168.2168 C 32.705776 168.2168 23.248317 159.40069 22.199219 148.37305 L 14.730469 148.37305 A 5.9867711 5.9867711 0 0 1 8.7441406 142.38672 A 5.9867711 5.9867711 0 0 1 14.730469 136.40039 L 22.097656 136.40039 L 22.097656 122.30859 L 14.730469 122.30859 A 5.9867711 5.9867711 0 0 1 8.7441406 116.32031 A 5.9867711 5.9867711 0 0 1 14.730469 110.33398 L 22.097656 110.33398 L 22.097656 98.847656 L 14.730469 98.847656 A 5.9867711 5.9867711 0 0 1 8.7441406 92.861328 A 5.9867711 5.9867711 0 0 1 14.730469 86.875 L 22.097656 86.875 L 22.097656 74.923828 L 14.730469 74.923828 A 5.9867711 5.9867711 0 0 1 8.7441406 68.9375 A 5.9867711 5.9867711 0 0 1 14.730469 62.949219 L 22.097656 62.949219 L 22.097656 51.929688 L 14.730469 51.929688 A 5.9867711 5.9867711 0 0 1 8.7441406 45.941406 A 5.9867711 5.9867711 0 0 1 14.730469 39.955078 L 22.214844 39.955078 C 23.358665 29.021139 32.774076 20.3125 43.978516 20.3125 L 45.587891 20.3125 L 45.587891 12.9375 A 5.9867711 5.9867711 0 0 1 51.574219 6.9511719 z M 297.24023 6.9511719 A 5.9867713 5.9867713 0 0 1 303.22656 12.9375 L 303.22656 20.3125 L 314.40234 20.3125 L 314.40234 12.9375 A 5.9867713 5.9867713 0 0 1 320.38867 6.9511719 A 5.9867713 5.9867713 0 0 1 326.37695 12.9375 L 326.37695 20.3125 L 337.55273 20.3125 L 337.55273 12.9375 A 5.9867713 5.9867713 0 0 1 343.53906 6.9511719 A 5.9867713 5.9867713 0 0 1 349.52539 12.9375 L 349.52539 20.3125 L 360.70117 20.3125 L 360.70117 12.9375 A 5.9867713 5.9867713 0 0 1 366.68945 6.9511719 A 5.9867713 5.9867713 0 0 1 372.67578 12.9375 L 372.67578 20.3125 L 383.85156 20.3125 L 383.85156 12.9375 A 5.9867713 5.9867713 0 0 1 389.83789 6.9511719 A 5.9867713 5.9867713 0 0 1 395.82422 12.9375 L 395.82422 20.414062 C 406.85186 21.463157 415.66797 30.920628 415.66797 42.193359 L 415.66797 44.119141 L 425.72852 44.119141 A 5.9867713 5.9867713 0 0 1 431.7168 50.105469 A 5.9867713 5.9867713 0 0 1 425.72852 56.091797 L 415.66797 56.091797 L 415.66797 67.105469 L 425.72852 67.105469 A 5.9859209 5.9859209 0 0 1 431.7168 73.09375 A 5.9859209 5.9859209 0 0 1 425.72852 79.080078 L 415.66797 79.080078 L 415.66797 91.039062 L 425.73633 91.039062 A 5.9859209 5.9859209 0 0 1 431.7168 97.025391 A 5.9859209 5.9859209 0 0 1 425.73633 103.01172 L 415.66797 103.01172 L 415.66797 114.49805 L 415.97852 114.49805 L 425.73633 114.49805 A 5.9859209 5.9859209 0 0 1 431.72266 120.48438 A 5.9859209 5.9859209 0 0 1 425.73633 126.4707 L 415.97852 126.4707 L 415.66797 126.4707 L 415.66797 136.08203 L 415.97852 136.08203 L 425.73633 136.08203 A 5.9859209 5.9859209 0 0 1 431.72266 142.07031 A 5.9859209 5.9859209 0 0 1 425.73633 148.05664 L 415.97852 148.05664 L 415.5918 148.05664 C 414.74915 158.55719 406.28531 167.12005 395.82422 168.11523 L 395.82422 175.65625 A 5.9867713 5.9867713 0 0 1 389.83789 181.64453 A 5.9867713 5.9867713 0 0 1 383.85156 175.65625 L 383.85156 168.2168 L 372.67578 168.2168 L 372.67578 175.65625 A 5.9867713 5.9867713 0 0 1 366.68945 181.64453 A 5.9867713 5.9867713 0 0 1 360.70117 175.65625 L 360.70117 168.2168 L 349.52539 168.2168 L 349.52539 175.65625 A 5.9867713 5.9867713 0 0 1 343.53906 181.64453 A 5.9867713 5.9867713 0 0 1 337.55273 175.65625 L 337.55273 168.2168 L 326.37695 168.2168 L 326.37695 175.65625 A 5.9867713 5.9867713 0 0 1 320.38867 181.64453 A 5.9867713 5.9867713 0 0 1 314.40234 175.65625 L 314.40234 168.2168 L 303.22656 168.2168 L 303.22656 175.65625 A 5.9867713 5.9867713 0 0 1 297.24023 181.64453 A 5.9867713 5.9867713 0 0 1 291.25391 175.65625 L 291.25391 168.2168 L 289.64453 168.2168 C 278.37179 168.2168 268.91432 159.40069 267.86523 148.37305 L 260.39648 148.37305 A 5.9867713 5.9867713 0 0 1 254.41016 142.38672 A 5.9867713 5.9867713 0 0 1 260.39648 136.40039 L 267.76367 136.40039 L 267.76367 122.30859 L 260.39648 122.30859 A 5.9867713 5.9867713 0 0 1 254.41016 116.32227 A 5.9867713 5.9867713 0 0 1 260.39648 110.33398 L 267.76367 110.33398 L 267.76367 98.847656 L 260.39648 98.847656 A 5.9867713 5.9867713 0 0 1 254.41016 92.861328 A 5.9867713 5.9867713 0 0 1 260.39648 86.875 L 267.76367 86.875 L 267.76367 74.923828 L 260.39648 74.923828 A 5.9867713 5.9867713 0 0 1 254.41016 68.9375 A 5.9867713 5.9867713 0 0 1 260.39648 62.951172 L 267.76367 62.951172 L 267.76367 51.929688 L 260.39648 51.929688 A 5.9867713 5.9867713 0 0 1 254.41016 45.943359 A 5.9867713 5.9867713 0 0 1 260.39648 39.955078 L 267.88086 39.955078 C 269.02466 29.021139 278.44008 20.3125 289.64453 20.3125 L 291.25391 20.3125 L 291.25391 12.9375 A 5.9867713 5.9867713 0 0 1 297.24023 6.9511719 z M 542.91016 6.9511719 A 5.9867713 5.9867713 0 0 1 548.89648 12.9375 L 548.89648 20.3125 L 560.07227 20.3125 L 560.07227 12.9375 A 5.9867713 5.9867713 0 0 1 566.05859 6.9511719 A 5.9867713 5.9867713 0 0 1 572.04492 12.9375 L 572.04492 20.3125 L 583.22266 20.3125 L 583.22266 12.9375 A 5.9867713 5.9867713 0 0 1 589.20898 6.9511719 A 5.9867713 5.9867713 0 0 1 595.19531 12.9375 L 595.19531 20.3125 L 606.37109 20.3125 L 606.37109 12.9375 A 5.9867713 5.9867713 0 0 1 612.35742 6.9511719 A 5.9867713 5.9867713 0 0 1 618.3457 12.9375 L 618.3457 20.3125 L 629.52148 20.3125 L 629.52148 12.9375 A 5.9867713 5.9867713 0 0 1 635.50781 6.9511719 A 5.9867713 5.9867713 0 0 1 641.49414 12.9375 L 641.49414 20.414062 C 652.52182 21.463157 661.33789 30.920628 661.33789 42.193359 L 661.33789 44.119141 L 671.39844 44.119141 A 5.9867713 5.9867713 0 0 1 677.38477 50.105469 A 5.9867713 5.9867713 0 0 1 671.39844 56.091797 L 661.33789 56.091797 L 661.33789 67.105469 L 671.39844 67.105469 A 5.9859209 5.9859209 0 0 1 677.38477 73.09375 A 5.9859209 5.9859209 0 0 1 671.39844 79.080078 L 661.33789 79.080078 L 661.33789 91.039062 L 671.40625 91.039062 A 5.9859209 5.9859209 0 0 1 677.38477 97.025391 A 5.9859209 5.9859209 0 0 1 671.40625 103.01172 L 661.33789 103.01172 L 661.33789 114.49805 L 661.64648 114.49805 L 671.40625 114.49805 A 5.9859209 5.9859209 0 0 1 677.39258 120.48438 A 5.9859209 5.9859209 0 0 1 671.40625 126.4707 L 661.64648 126.4707 L 661.33789 126.4707 L 661.33789 136.08203 L 661.64648 136.08203 L 671.40625 136.08203 A 5.9859209 5.9859209 0 0 1 677.39258 142.07031 A 5.9859209 5.9859209 0 0 1 671.40625 148.05664 L 661.64648 148.05664 L 661.26172 148.05664 C 660.41911 158.55719 651.95527 167.12005 641.49414 168.11523 L 641.49414 175.65625 A 5.9867713 5.9867713 0 0 1 635.50781 181.64453 A 5.9867713 5.9867713 0 0 1 629.52148 175.65625 L 629.52148 168.2168 L 618.3457 168.2168 L 618.3457 175.65625 A 5.9867713 5.9867713 0 0 1 612.35742 181.64453 A 5.9867713 5.9867713 0 0 1 606.37109 175.65625 L 606.37109 168.2168 L 595.19531 168.2168 L 595.19531 175.65625 A 5.9867713 5.9867713 0 0 1 589.20898 181.64453 A 5.9867713 5.9867713 0 0 1 583.22266 175.65625 L 583.22266 168.2168 L 572.04492 168.2168 L 572.04492 175.65625 A 5.9867713 5.9867713 0 0 1 566.05859 181.64453 A 5.9867713 5.9867713 0 0 1 560.07227 175.65625 L 560.07227 168.2168 L 548.89648 168.2168 L 548.89648 175.65625 A 5.9867713 5.9867713 0 0 1 542.91016 181.64453 A 5.9867713 5.9867713 0 0 1 536.92188 175.65625 L 536.92188 168.2168 L 535.3125 168.2168 C 524.03976 168.2168 514.58229 159.40073 513.5332 148.37305 L 506.06641 148.37305 A 5.9867713 5.9867713 0 0 1 500.08008 142.38672 A 5.9867713 5.9867713 0 0 1 506.06641 136.40039 L 513.43359 136.40039 L 513.43359 122.30859 L 506.06641 122.30859 A 5.9867713 5.9867713 0 0 1 500.08008 116.32227 A 5.9867713 5.9867713 0 0 1 506.06641 110.33398 L 513.43359 110.33398 L 513.43359 98.847656 L 506.06641 98.847656 A 5.9867713 5.9867713 0 0 1 500.08008 92.861328 A 5.9867713 5.9867713 0 0 1 506.06641 86.875 L 513.43359 86.875 L 513.43359 74.923828 L 506.06641 74.923828 A 5.9867713 5.9867713 0 0 1 500.08008 68.9375 A 5.9867713 5.9867713 0 0 1 506.06641 62.951172 L 513.43359 62.951172 L 513.43359 51.929688 L 506.06641 51.929688 A 5.9867713 5.9867713 0 0 1 500.08008 45.943359 A 5.9867713 5.9867713 0 0 1 506.06641 39.955078 L 513.54883 39.955078 C 514.69266 29.021135 524.10805 20.3125 535.3125 20.3125 L 536.92188 20.3125 L 536.92188 12.9375 A 5.9867713 5.9867713 0 0 1 542.91016 6.9511719 z M 788.57812 6.9511719 A 5.9867713 5.9867713 0 0 1 794.56445 12.9375 L 794.56445 20.3125 L 805.74219 20.3125 L 805.74219 12.9375 A 5.9867713 5.9867713 0 0 1 811.72852 6.9511719 A 5.9867713 5.9867713 0 0 1 817.71484 12.9375 L 817.71484 20.3125 L 828.89062 20.3125 L 828.89062 12.9375 A 5.9867713 5.9867713 0 0 1 834.87695 6.9511719 A 5.9867713 5.9867713 0 0 1 840.86523 12.9375 L 840.86523 20.3125 L 852.04102 20.3125 L 852.04102 12.9375 A 5.9867713 5.9867713 0 0 1 858.02734 6.9511719 A 5.9867713 5.9867713 0 0 1 864.01367 12.9375 L 864.01367 20.3125 L 875.18945 20.3125 L 875.18945 12.9375 A 5.9867713 5.9867713 0 0 1 881.17773 6.9511719 A 5.9867713 5.9867713 0 0 1 887.16406 12.9375 L 887.16406 20.414062 C 898.1917 21.463157 907.00586 30.920628 907.00586 42.193359 L 907.00586 44.119141 L 917.06836 44.119141 A 5.9867713 5.9867713 0 0 1 923.05469 50.105469 A 5.9867713 5.9867713 0 0 1 917.06836 56.091797 L 907.00586 56.091797 L 907.00586 67.105469 L 917.06836 67.105469 A 5.9859209 5.9859209 0 0 1 923.05469 73.09375 A 5.9859209 5.9859209 0 0 1 917.06836 79.080078 L 907.00586 79.080078 L 907.00586 91.039062 L 917.07422 91.039062 A 5.9859209 5.9859209 0 0 1 923.05469 97.025391 A 5.9859209 5.9859209 0 0 1 917.07422 103.01172 L 907.00586 103.01172 L 907.00586 114.49805 L 907.31641 114.49805 L 917.07422 114.49805 A 5.9859209 5.9859209 0 0 1 923.0625 120.48438 A 5.9859209 5.9859209 0 0 1 917.07422 126.4707 L 907.31641 126.4707 L 907.00586 126.4707 L 907.00586 136.08203 L 907.31641 136.08203 L 917.07422 136.08203 A 5.9859209 5.9859209 0 0 1 923.0625 142.07031 A 5.9859209 5.9859209 0 0 1 917.07422 148.05664 L 907.31641 148.05664 L 906.92969 148.05664 C 906.08704 158.55715 897.62515 167.12005 887.16406 168.11523 L 887.16406 175.65625 A 5.9867713 5.9867713 0 0 1 881.17773 181.64453 A 5.9867713 5.9867713 0 0 1 875.18945 175.65625 L 875.18945 168.2168 L 864.01367 168.2168 L 864.01367 175.65625 A 5.9867713 5.9867713 0 0 1 858.02734 181.64453 A 5.9867713 5.9867713 0 0 1 852.04102 175.65625 L 852.04102 168.2168 L 840.86523 168.2168 L 840.86523 175.65625 A 5.9867713 5.9867713 0 0 1 834.87695 181.64453 A 5.9867713 5.9867713 0 0 1 828.89062 175.65625 L 828.89062 168.2168 L 817.71484 168.2168 L 817.71484 175.65625 A 5.9867713 5.9867713 0 0 1 811.72852 181.64453 A 5.9867713 5.9867713 0 0 1 805.74219 175.65625 L 805.74219 168.2168 L 794.56445 168.2168 L 794.56445 175.65625 A 5.9867713 5.9867713 0 0 1 788.57812 181.64453 A 5.9867713 5.9867713 0 0 1 782.5918 175.65625 L 782.5918 168.2168 L 780.98242 168.2168 C 769.70972 168.2168 760.25225 159.40069 759.20312 148.37305 L 751.73633 148.37305 A 5.9867713 5.9867713 0 0 1 745.74805 142.38672 A 5.9867713 5.9867713 0 0 1 751.73633 136.40039 L 759.10352 136.40039 L 759.10352 122.30859 L 751.73633 122.30859 A 5.9867713 5.9867713 0 0 1 745.74805 116.32227 A 5.9867713 5.9867713 0 0 1 751.73633 110.33398 L 759.10352 110.33398 L 759.10352 98.847656 L 751.73633 98.847656 A 5.9867713 5.9867713 0 0 1 745.74805 92.861328 A 5.9867713 5.9867713 0 0 1 751.73633 86.875 L 759.10352 86.875 L 759.10352 74.923828 L 751.73633 74.923828 A 5.9867713 5.9867713 0 0 1 745.74805 68.9375 A 5.9867713 5.9867713 0 0 1 751.73633 62.951172 L 759.10352 62.951172 L 759.10352 51.929688 L 751.73633 51.929688 A 5.9867713 5.9867713 0 0 1 745.74805 45.943359 A 5.9867713 5.9867713 0 0 1 751.73633 39.955078 L 759.21875 39.955078 C 760.36259 29.021139 769.77801 20.3125 780.98242 20.3125 L 782.5918 20.3125 L 782.5918 12.9375 A 5.9867713 5.9867713 0 0 1 788.57812 6.9511719 z M 1034.248 6.9511719 A 5.9867713 5.9867713 0 0 1 1040.2344 12.9375 L 1040.2344 20.3125 L 1051.4102 20.3125 L 1051.4102 12.9375 A 5.9867713 5.9867713 0 0 1 1057.3984 6.9511719 A 5.9867713 5.9867713 0 0 1 1063.3848 12.9375 L 1063.3848 20.3125 L 1074.5605 20.3125 L 1074.5605 12.9375 A 5.9867713 5.9867713 0 0 1 1080.5469 6.9511719 A 5.9867713 5.9867713 0 0 1 1086.5332 12.9375 L 1086.5332 20.3125 L 1097.7109 20.3125 L 1097.7109 12.9375 A 5.9867713 5.9867713 0 0 1 1103.6973 6.9511719 A 5.9867713 5.9867713 0 0 1 1109.6836 12.9375 L 1109.6836 20.3125 L 1120.8594 20.3125 L 1120.8594 12.9375 A 5.9867713 5.9867713 0 0 1 1126.8457 6.9511719 A 5.9867713 5.9867713 0 0 1 1132.834 12.9375 L 1132.834 20.414062 C 1143.8608 21.46408 1152.6758 30.921285 1152.6758 42.193359 L 1152.6758 44.119141 L 1162.7363 44.119141 A 5.9867713 5.9867713 0 0 1 1168.7246 50.105469 A 5.9867713 5.9867713 0 0 1 1162.7363 56.091797 L 1152.6758 56.091797 L 1152.6758 67.105469 L 1162.7363 67.105469 A 5.9859209 5.9859209 0 0 1 1168.7246 73.09375 A 5.9859209 5.9859209 0 0 1 1162.7363 79.080078 L 1152.6758 79.080078 L 1152.6758 91.039062 L 1162.7441 91.039062 A 5.9859209 5.9859209 0 0 1 1168.7246 97.025391 A 5.9859209 5.9859209 0 0 1 1162.7441 103.01172 L 1152.6758 103.01172 L 1152.6758 114.49805 L 1152.9863 114.49805 L 1162.7441 114.49805 A 5.9859209 5.9859209 0 0 1 1168.7305 120.48438 A 5.9859209 5.9859209 0 0 1 1162.7441 126.4707 L 1152.9863 126.4707 L 1152.6758 126.4707 L 1152.6758 136.08203 L 1152.9863 136.08203 L 1162.7441 136.08203 A 5.9859209 5.9859209 0 0 1 1168.7305 142.07031 A 5.9859209 5.9859209 0 0 1 1162.7441 148.05664 L 1152.9863 148.05664 L 1152.5996 148.05664 C 1151.757 158.55655 1143.2943 167.11918 1132.834 168.11523 L 1132.834 175.65625 A 5.9867713 5.9867713 0 0 1 1126.8457 181.64453 A 5.9867713 5.9867713 0 0 1 1120.8594 175.65625 L 1120.8594 168.2168 L 1109.6836 168.2168 L 1109.6836 175.65625 A 5.9867713 5.9867713 0 0 1 1103.6973 181.64453 A 5.9867713 5.9867713 0 0 1 1097.7109 175.65625 L 1097.7109 168.2168 L 1086.5332 168.2168 L 1086.5332 175.65625 A 5.9867713 5.9867713 0 0 1 1080.5469 181.64453 A 5.9867713 5.9867713 0 0 1 1074.5605 175.65625 L 1074.5605 168.2168 L 1063.3848 168.2168 L 1063.3848 175.65625 A 5.9867713 5.9867713 0 0 1 1057.3984 181.64453 A 5.9867713 5.9867713 0 0 1 1051.4102 175.65625 L 1051.4102 168.2168 L 1040.2344 168.2168 L 1040.2344 175.65625 A 5.9867713 5.9867713 0 0 1 1034.248 181.64453 A 5.9867713 5.9867713 0 0 1 1028.2617 175.65625 L 1028.2617 168.2168 L 1026.6523 168.2168 C 1015.3796 168.2168 1005.9221 159.40069 1004.873 148.37305 L 997.4043 148.37305 A 5.9867713 5.9867713 0 0 1 991.41797 142.38672 A 5.9867713 5.9867713 0 0 1 997.4043 136.40039 L 1004.7715 136.40039 L 1004.7715 122.30859 L 997.4043 122.30859 A 5.9867713 5.9867713 0 0 1 991.41797 116.32227 A 5.9867713 5.9867713 0 0 1 997.4043 110.33398 L 1004.7715 110.33398 L 1004.7715 98.847656 L 997.4043 98.847656 A 5.9867713 5.9867713 0 0 1 991.41797 92.861328 A 5.9867713 5.9867713 0 0 1 997.4043 86.875 L 1004.7715 86.875 L 1004.7715 74.923828 L 997.4043 74.923828 A 5.9867713 5.9867713 0 0 1 991.41797 68.9375 A 5.9867713 5.9867713 0 0 1 997.4043 62.951172 L 1004.7715 62.951172 L 1004.7715 51.929688 L 997.4043 51.929688 A 5.9867713 5.9867713 0 0 1 991.41797 45.943359 A 5.9867713 5.9867713 0 0 1 997.4043 39.955078 L 1004.8887 39.955078 C 1006.0325 29.021139 1015.4479 20.3125 1026.6523 20.3125 L 1028.2617 20.3125 L 1028.2617 12.9375 A 5.9867713 5.9867713 0 0 1 1034.248 6.9511719 z M 43.978516 39.210938 C 42.161678 39.210937 40.996094 40.374572 40.996094 42.191406 L 40.996094 146.33594 C 40.996094 148.15283 42.161678 149.31836 43.978516 149.31836 L 148.12109 149.31836 C 149.93799 149.31836 151.10352 148.15283 151.10352 146.33594 L 151.10352 42.191406 C 151.10352 40.374572 149.93799 39.210937 148.12109 39.210938 L 43.978516 39.210938 z M 289.64453 39.210938 C 287.82767 39.210938 286.66211 40.376522 286.66211 42.193359 L 286.66211 146.33594 C 286.66211 148.15283 287.82767 149.31836 289.64453 149.31836 L 393.78711 149.31836 C 395.604 149.31836 396.76953 148.15283 396.76953 146.33594 L 396.76953 42.193359 C 396.76953 40.376522 395.604 39.210937 393.78711 39.210938 L 289.64453 39.210938 z M 535.3125 39.210938 C 533.49568 39.210938 532.33008 40.376522 532.33008 42.193359 L 532.33008 146.33594 C 532.33008 148.15283 533.49568 149.31836 535.3125 149.31836 L 639.45703 149.31836 C 641.27393 149.31836 642.43945 148.15283 642.43945 146.33594 L 642.43945 42.193359 C 642.43945 40.376522 641.27393 39.210937 639.45703 39.210938 L 535.3125 39.210938 z M 780.98242 39.210938 C 779.1656 39.210938 778 40.376522 778 42.193359 L 778 146.33594 C 778 148.15283 779.1656 149.31836 780.98242 149.31836 L 885.12695 149.31836 C 886.94385 149.31836 888.10938 148.15283 888.10938 146.33594 L 888.10938 42.193359 C 888.10937 40.376522 886.94385 39.210937 885.12695 39.210938 L 780.98242 39.210938 z M 1026.6523 39.210938 C 1024.8356 39.210938 1023.6699 40.376522 1023.6699 42.193359 L 1023.6699 146.33594 C 1023.6699 148.15283 1024.8356 149.31836 1026.6523 149.31836 L 1130.7949 149.31836 C 1132.6118 149.31836 1133.7773 148.15283 1133.7773 146.33594 L 1133.7773 42.193359 C 1133.7773 40.376522 1132.6118 39.210937 1130.7949 39.210938 L 1026.6523 39.210938 z M 70.744141 61.007812 L 121.35352 61.007812 A 9.4497633 9.4497633 0 0 1 130.80273 70.457031 L 130.80273 118.07031 A 9.4497633 9.4497633 0 0 1 121.35352 127.51953 L 70.744141 127.51953 A 9.4497633 9.4497633 0 0 1 61.294922 118.07031 L 61.294922 70.457031 A 9.4497633 9.4497633 0 0 1 70.744141 61.007812 z M 316.41016 61.007812 L 367.02148 61.007812 A 9.4497635 9.4497635 0 0 1 376.46875 70.457031 L 376.46875 118.07031 A 9.4497635 9.4497635 0 0 1 367.02148 127.51953 L 316.41016 127.51953 A 9.4497635 9.4497635 0 0 1 306.96094 118.07031 L 306.96094 70.457031 A 9.4497635 9.4497635 0 0 1 316.41016 61.007812 z M 562.08008 61.007812 L 612.68945 61.007812 A 9.4497636 9.4497636 0 0 1 622.13867 70.457031 L 622.13867 118.07031 A 9.4497636 9.4497636 0 0 1 612.68945 127.51953 L 562.08008 127.51953 A 9.4497636 9.4497636 0 0 1 552.63086 118.07031 L 552.63086 70.457031 A 9.4497636 9.4497636 0 0 1 562.08008 61.007812 z M 807.74805 61.007812 L 858.35938 61.007812 A 9.4497637 9.4497637 0 0 1 867.80859 70.457031 L 867.80859 118.07031 A 9.4497637 9.4497637 0 0 1 858.35938 127.51953 L 807.74805 127.51953 A 9.4497637 9.4497637 0 0 1 798.30078 118.07031 L 798.30078 70.457031 A 9.4497637 9.4497637 0 0 1 807.74805 61.007812 z M 1053.418 61.007812 L 1104.0293 61.007812 A 9.4497638 9.4497638 0 0 1 1113.4766 70.457031 L 1113.4766 118.07031 A 9.4497638 9.4497638 0 0 1 1104.0293 127.51953 L 1053.418 127.51953 A 9.4497638 9.4497638 0 0 1 1043.9688 118.07031 L 1043.9688 70.457031 A 9.4497638 9.4497638 0 0 1 1053.418 61.007812 z M 80.193359 79.90625 L 80.193359 108.62109 L 111.90625 108.62109 L 111.90625 79.90625 L 80.193359 79.90625 z M 325.85938 79.90625 L 325.85938 108.62109 L 357.57227 108.62109 L 357.57227 79.90625 L 325.85938 79.90625 z M 571.5293 79.90625 L 571.5293 108.62109 L 603.24023 108.62109 L 603.24023 79.90625 L 571.5293 79.90625 z M 817.19727 79.90625 L 817.19727 108.62109 L 848.91016 108.62109 L 848.91016 79.90625 L 817.19727 79.90625 z M 1062.8672 79.90625 L 1062.8672 108.62109 L 1094.5801 108.62109 L 1094.5801 79.90625 L 1062.8672 79.90625 z "
       transform="matrix(0.26458333,0,0,0.26458333,-0.32822528,-0.25163206)" />
    <path
       style="fill:none;stroke:#000000;stroke-width:0.765;stroke-linecap:butt;stroke-linejoin:miter;stroke-opacity:1;stroke-miterlimit:4;stroke-dasharray:none"
       d="M 310.49311,0.0806474 V 49.256973 l -310.48905582,0 V 0.0806474 Z"
       id="path27316" />
  </g>
  <g
     inkscape:label="Layer 1"
     inkscape:groupmode="layer"
     id="layer1"
     transform="translate(-81.05602,-72.395846)">
    <path
       style="color:#000000;fill:#008c0e;fill-opacity:0;stroke:none;stroke-width:5;stroke-linejoin:round;stroke-miterlimit:4.3;stroke-opacity:1;-inkscape-stroke:none"
       d="M 99.773511,91.037802 H 113.16463 V 103.63516 H 99.773511 Z"
       id="path18812" />
    <path
       style="color:#000000;fill:#008c0e;fill-opacity:0;stroke:none;stroke-width:5;stroke-linejoin:round;stroke-miterlimit:4.3;stroke-opacity:1;-inkscape-stroke:none"
       d="m 164.77267,91.037865 h 13.39112 v 12.597355 h -13.39112 z"
       id="path18812-5" />
    <path
       style="color:#000000;fill:#008c0e;fill-opacity:0;stroke:none;stroke-width:5;stroke-linejoin:round;stroke-miterlimit:4.3;stroke-opacity:1;-inkscape-stroke:none"
       d="m 229.77267,91.037865 h 13.39112 v 12.597365 h -13.39112 z"
       id="path18812-5-9" />
    <path
       style="color:#000000;fill:#008c0e;fill-opacity:0;stroke:none;stroke-width:5;stroke-linejoin:round;stroke-miterlimit:4.3;stroke-opacity:1;-inkscape-stroke:none"
       d="m 294.77267,91.037865 h 13.39112 v 12.597365 h -13.39112 z"
       id="path18812-5-9-8" />
    <path
       style="color:#000000;fill:#008c0e;fill-opacity:0;stroke:none;stroke-width:5;stroke-linejoin:round;stroke-miterlimit:4.3;stroke-opacity:1;-inkscape-stroke:none"
       d="m 359.77267,91.037865 h 13.39112 v 12.597365 h -13.39112 z"
       id="path18812-5-9-8-7" />
    <rect
       style="fill:#080808;fill-opacity:0;stroke:none;stroke-width:0.264583"
       id="rect4412"
       width="280.52844"
       height="40.471691"
       x="86.318207"
       y="77.581802" />
  </g>
</svg>
